<svg xmlns="http://www.w3.org/2000/svg" viewBox="0 0 1000 1000"><title>br-icon</title><path d="M956,360H44.06A43.63,43.63,0,0,1,.14,319.33,25.68,25.68,0,0,1,0,316.74V296.9c0-.58,0-1.17.06-1.74v-11c0-.45,0-0.9,0-1.35v-3.47C0,144.82,157.31,0,502.66,0,814,0,1000,142,1000,279.38l-31.65.25,31.65,0v37.13A43.73,43.73,0,0,1,956,360ZM63.29,304.69H936.71v-25.3c0-90.36-137.94-224.07-434-224.07C200.8,55.31,63.32,171.47,63.32,279.38v2.12c0,0.45,0,.9,0,1.35v14c0,0.58,0,1.17-.06,1.74v6.05Z" style="fill:#b49759"/><path d="M889.61,1000H110.33C51,1000,3.08,948.67.22,882.67A21.35,21.35,0,0,1,0,879.58V781.13C0.66,757.8,20,740,44,740h911.9c23.91,0,43.19,17.64,44,40.21l0,0.32c0,0.37,0,.73,0,1.1V800c0,0.49,0,1,0,1.48v78.09a21.63,21.63,0,0,1-.22,3.11C996.86,948.67,948.92,1000,889.61,1000ZM63.29,877.25c0.06,0.59.1,1.17,0.11,1.77,1,40.32,25.56,68.41,46.92,68.41H889.61c21.36,0,45.9-28.09,46.94-68.41,0-.6,0-1.18.11-1.77V800c0-.49,0-1,0-1.48v-5.95H63.29v84.66Zm873.42-95.46h0a1.45,1.45,0,0,0,0,.23v-0.23Z" style="fill:#b49759"/><path d="M716.64,543.76q0.44,2.41,3.37,4.79a7.37,7.37,0,0,0,6.14,1.78q9-.81,30.6-3.12t49.39-4.9q27.78-2.6,58-5.64t56.3-5.76q26.1-2.7,44.49-4.42T987.32,524q11.4-1.26,12.59,5.17,1,5.63-9.93,9.3-15,4.41-45.72,11.29t-68.39,14.62q-37.65,7.73-78.66,15.26T720.88,594.1Q685.58,601,659,605.86l-34.58,6.34q-8,1.47-9.52-6.57-0.44-2.41,1.67-9t5.28-14.27q3.17-7.65,5.28-14.27t1.67-9q-1.32-7.24-9.52-6.57-3.21.6-27.49,4.21T532.5,566.3q-35.05,6-75.74,13.06t-77.82,13q-37.14,6-65,10.26t-37,4.3q-11.69-.35-12.73-6-0.47-2.41,2.58-10.86t7-18.33q4-9.88,7-18.73T283.07,541q-1-5.62-7.47-4.45-8.84,1.62-30.45,3.92t-49.32,5.3q-27.71,3-58,5.64t-56,5.28q-25.7,2.63-43.69,4.27t-22,2.37Q1.71,566,.09,557.12q-1-5.62,9.42-7.54Q23,546.28,53,539.93t68.06-14.14q38-7.81,80.19-16t79.47-15.4q37.32-7.26,65.39-12.82t37.72-7.33q7.24-1.33,8.42,5.11,0.44,2.41-2.73,10.06t-7.47,15.92q-4.3,8.27-7.47,15.92t-2.73,10.06q1,5.63,8.27,4.3,3.21-.6,27.41-4.61T468,520.77q36.26-6.24,78.63-13.17t81-13.61q38.67-6.69,68.9-11.81T738.11,475q7.24-1.33,8.42,5.11,0.59,3.22-4.37,12.44t-10.5,19.8q-5.54,10.58-10.5,19.8T716.64,543.76Z" style="fill:#b49759"/></svg>