<svg id="Layer_1" data-name="Layer 1" xmlns="http://www.w3.org/2000/svg" viewBox="0 0 1000 840"><defs><style>.cls-1{fill:#b49759;}</style></defs><title>Web Logo - Gold</title><path class="cls-1" d="M259.73,476.17c-1.36.82-2.72,1.08-3.54,2.72-.27.54-.27.81,0,1.08.55.27.82.55,1.36.82A32.76,32.76,0,0,1,268.7,490c3.81,4.35,7.61,9,9.79,14.68a53.48,53.48,0,0,1,3,22.57c-.55,12.78-4.62,27.73-12.78,37.25-3.81,4.35-9,7.34-13.87,10.33a38.7,38.7,0,0,1-10.61,3,65.94,65.94,0,0,1-25.29-.81,183.75,183.75,0,0,1-26.65-7.35c-6-2.18-16-7.34-23.38-12-.55-.55-4.35,5.71-10.88,11.15-8.16,7.34-22.84,10.61-34.26,6.79-7.88-2.71-14.41-8.43-15.77-18.49a31,31,0,0,1,7.07-23.38c7.34-8.16,21.48-12.24,33.72-6.25l9.79,4.89a11,11,0,0,1,2.44,1.36c1.09.81,1.36.81,2.18-.55a92.66,92.66,0,0,0,3.54-9.24c4.08-13.33,7.07-27.19,11.42-40.52,5.44-17.67,11.15-35.61,20.39-51.66,3.26-5.17,6.52-10.06,10.33-15a31.14,31.14,0,0,1,6.25-5.71c2.72-2.18,5.71-2.45,9.24-1.63a22.2,22.2,0,0,1,5.17,2.44c1.36,1.09,1.63,2.45.54,3.81a12,12,0,0,1-2.18,3c-4.62,4.08-8.16,9-11.69,14.14a154.63,154.63,0,0,0-9.52,17.41c-1.9,4.34-4.89,13.32-3.81,13.87,13.05,3.81,17.4,4.08,23.38,4.35,10.6.27,20.12-.55,28.55-7.35,8.43-7.07,12.51-16.59,13.87-27.18,3.26-22-7.61-43.23-28-52.21a73.91,73.91,0,0,0-36.71-6,84.3,84.3,0,0,0-48.13,21.21c-7.89,6.79-14.41,17.12-17.67,26.91a63.29,63.29,0,0,0-1.9,6.8c-1.63,11.42-.27,25.29,6.8,34.53,1.9,2.45,4.35,4.62,7.88,7.88,3.54,3.54,3.54,4.08,1.09,7.35a22.89,22.89,0,0,0-2.18,3.26,11.65,11.65,0,0,1-2.44,2.72c-1.36,1.08-2.45,1.36-4.08.27-16.86-9.52-23.66-29.09-23.11-48.67a76.05,76.05,0,0,1,18.76-47c10.87-12.51,25-21.21,41.06-26.38a108.85,108.85,0,0,1,22.84-4.34c19.85-1.64,41.6,2.44,57.64,14.41a60.1,60.1,0,0,1,19,22.83c9.79,20.94,8.7,47.31-4.9,65.25A50.57,50.57,0,0,1,259.73,476.17Zm-106,71.24c-6.8-5.16-23.93-12-28.55,0-1.36,3.53-.55,8.16,2.72,10.61,8.43,6.25,20.66-.27,26.1-7.61C155.32,549,155.32,548.5,153.69,547.41Zm96.25-53.84a51,51,0,0,0-10.88-5.44c-3.53-1.36-6.8-3-10.6-3.53-6.25-1.09-11.69-2.45-17.95-3.27-4.35-.81-8.7-.81-12.78-1.36-1.09,0-1.91.27-2.18,1.36a64.62,64.62,0,0,0-3.54,9.25c-2.72,11.14-6.52,22-9.24,32.9-1.9,8.16-4.89,17.4-4.89,20.12,0,3.53,17.4,9.51,22.84,11.69,10.06,4.35,15.77,5.72,26.37,7.07,22.29,3,37-11.69,39.15-34.26.27-3,0-10.33-.82-13.33C262.45,503.09,259.73,500.1,249.94,493.57Z"/><path class="cls-1" d="M431.81,516.68c-1.63,2.72-2.45,4.35-4.08,7.08l-.82,1.26a41,41,0,0,0,2.47-4,9.48,9.48,0,0,1,1.63-2.44,60.67,60.67,0,0,0,4.65-8.46Q433.83,513.31,431.81,516.68Z"/><path class="cls-1" d="M889.39,500.64c-2.72-2.17-4.9-2.45-7.07-1.08-1.91,1.35-3.27,3.8-5.44,6.79l-.55,1.09c-1.08,1.63-2.44,3.53-3.8,5.44-.82,1.63-1.91,3-2.72,4.35-1.63,2.45-3.81,5.16-6,7.88l-1.63,2.18A19.24,19.24,0,0,1,860,530c-5.17,7.06-12.78,17.94-20.94,21.75-7.88,3.53-10.87-2.45-9.78-10.88,1.63-10.87,7.07-20.66,10.06-30.72,3.26-9.52,4.62-18.49,1.63-28.28-2.18-7.34-7.35-13.87-13-18.49-3-2.45-9.79-6.79-10.61-10.87a4.73,4.73,0,0,1,.27-2.72c6.26-15,1.36-39.43-20.12-34.53-11.69,2.71-17.94,12-14.13,25.28,1.9,7.07,5.16,12.24,11.69,18.49.81.54,1.63,1.36,1.9,1.36a7.3,7.3,0,0,0-.82,2.18c-1.36,3.26-3,6.52-4.35,9.51-7.61,15-12.5,25-23.65,41.88-1.67,2.62-4.17,6.27-6,9.14l0,0c-.5.66-1,1.32-1.53,2a12.52,12.52,0,0,1-1.63,1.91,20.94,20.94,0,0,1-2.18,3c-5.44,7.34-10.06,11.14-19.58,17.12-7.34,4.9-16.58,6.8-25.55,6.8a53.08,53.08,0,0,1-6.53-.54c-9-1.36-16.32-5.16-21.48-11.42-5.17-6-7.61-13.6-7.61-22.84.27-1.9.27-2.72,2.17-2.72h3.54a8.39,8.39,0,0,0,2.44.27c3.54.28,6.8.28,10.06.28h.55a145.44,145.44,0,0,0,29.36-3.81l1.09-.27a62.57,62.57,0,0,0,11.42-4.35,43.54,43.54,0,0,0,11.69-7.62c12.24-11.15,16-32.35,8.7-47-2.72-5.17-11.42-17.67-34.53-17.67H718.1c-4.08,0-12.51,2.71-16.58,4.89-10.34,5.7-14.42,9.24-20.4,16.58a104.74,104.74,0,0,0-19.53,42.65,24.4,24.4,0,0,0-4.38,6l-.82.82c-1.08,1.9-2.44,3.8-3.53,5.71a36.83,36.83,0,0,0-3,4.08c-1.36,2.44-3.81,5.43-5.71,8.15L642.53,527a20.94,20.94,0,0,0-2.18,3,155.41,155.41,0,0,1-12.78,13.86,89.71,89.71,0,0,1-9.78,7.34l-4.9,3.27a19.64,19.64,0,0,0-4.08,2.18c.27-2.45,2.45-8.16,3.26-10.61,2.45-6.25,4.63-12.78,6.53-18.76l1.36-3.53c.54-2.18,3.26-10.06,6-18.49,3.26-10.06,6.8-20.4,7.34-22.3,1.91-5.71,3.81-11.15,5.17-16.86.82-2.45,1.36-4.62,2.17-6.8.82-2.71,1.64-5.16,2.45-7.88a6.46,6.46,0,0,1,.54-2.18c.82-2.72,1.36-5.43-.54-7.34-1.63-1.63-6-1.63-9-1.63l-.27-.27c-1.36,0-4.08.54-4.9,1.9-1.36,2.18-4.35,10.88-6,16.32-7.61-14.69-17.67-18.22-30.72-19.31h-2.45c-14.41,0-29.36,8.43-37.79,16.59a84.29,84.29,0,0,0-14.14,18.76,98.21,98.21,0,0,0-10.5,28.46c-.77,1.07-1.58,2.29-2.55,3.62l-.54,1.09c-1.09,1.63-2.45,3.53-3.81,5.44-.82,1.63-1.9,3-2.72,4.35-1.63,2.45-3.8,5.16-6,7.88l-1.63,2.18A19.13,19.13,0,0,1,508,530c-5.17,7.06-12.79,17.94-20.94,21.75-7.89,3.53-10.88-2.45-9.79-10.88,1.63-10.87,7.07-20.66,10.06-30.72,3.26-9.52,4.62-18.49,1.63-28.28-2.18-7.34-7.34-13.87-13-18.49-3-2.45-9.79-6.79-10.61-10.87a4.73,4.73,0,0,1,.28-2.72c6.25-15,1.36-39.43-20.12-34.53-11.7,2.71-17.95,12-14.14,25.28,1.9,7.07,5.17,12.24,11.69,18.49.81.54,1.63,1.36,1.9,1.36a7.26,7.26,0,0,0-.81,2.18c-1.36,3.26-3,6.52-4.35,9.51-7.61,15-12.51,25-23.66,41.88-1.68,2.65-4.22,6.37-6.11,9.25-.49.63-1,1.27-1.49,1.89-3.26,4.35-8.15,11.15-14.13,17.13-7.07,6.53-16,11.69-23.66,3.26-5.17-5.16-2.45-14.68-.27-20.66A203,203,0,0,1,379.62,502c3.81-8.7,7.89-17.4,11.42-26.37l1.36-3.26c.82-2.45,9.24-21.76,10.33-25l.28-1.08a21.4,21.4,0,0,0,1.36-4.36c.27-.81,0-1.09-.82-1.36a32.76,32.76,0,0,0-9-1.36c-1.91,0-4.63,1.09-5.44,2.18-1.09,1.36-3.26,6.8-4.9,10.33-.54,1.36-1.08,2.72-1.35,3.26-7.07,15.78-12,31.27-21.48,51.39-1.09,2.18-2.18,4.08-3,6a127.12,127.12,0,0,1-13.87,22c-5.44,7.07-11.69,13.32-18.22,15.22-7.61,2.72-13.32,1.09-16.59-3.26-6-8.7-1.08-25.56.55-30.72,9.24-27.19,19.3-51.94,28.82-74.23a11.5,11.5,0,0,1,.27-1.36c-.27-.27-.81-.54-1.09-.82a2.43,2.43,0,0,1-1.35-.27,64.72,64.72,0,0,1-7.07-.55h-1.36c-2.72,0-5.44.55-7.07,3.54-3.54,7.89-8.43,21.21-13,31.81-4.63,10.34-7.35,18.22-11.42,29.92s-8.16,25.28-6.26,38.33a34.83,34.83,0,0,0,5.71,15.77c6.25,7.88,14.68,11.42,24.74,10.61,9-.82,18.22-6,28.28-15.77.82-.55,2.18-2.72,3.54-1.09,6.25,9,11.14,13.6,21.75,14.41,9.79.82,19-2.45,28-11.15,6.8-6.25,12.78-13.87,18.22-21.48a15.12,15.12,0,0,0,1.91-2.45c1-1.45,2-2.84,3-4.25.21-.3.43-.6.64-.91s.29-.43.43-.64l.82-1.26c1.63-2.73,2.45-4.36,4.08-7.08q2-3.37,3.85-6.55c6.88-12,12-22,18.18-32.87.54-1.36,1.63-3.26,2.44-5.17a9.81,9.81,0,0,0,.82-1.08,16.67,16.67,0,0,1,.82-2.18c.54-.82,2.71,1.63,4.62,3.26,7.88,6.53,15.77,15.23,12.23,26.38-1.9,6.25-3.8,12.5-6,18.76-4.08,12.23-10.06,26.92-6,39.7,2.72,7.61,9,11.14,16.59,11.14,14.4-.27,21.2-6,28.55-13.86,6.52-6.8,12-14.69,16.31-20.94A14.85,14.85,0,0,0,526,531c1.38,10.38,5.3,19.32,11.25,25.67a31.39,31.39,0,0,0,23.12,9.51,56.37,56.37,0,0,0,12.77-1.9c8.16-2.45,12-4.9,18.22-9.52-.82,3-4.35,10.87-5.71,14.41l-.27.27a5.62,5.62,0,0,1-2.18,2.72c-2.72,1.63-23.65,14.14-31,18.49C540,597.71,531,605.32,524.79,614.3c-4.89,7.06-7.88,16-7.07,23.11.55,7.34,5.72,13.6,13.33,16.31a26,26,0,0,0,9,1.63c9,0,17.95-5.16,26.92-15.22,5.44-6.53,9.24-13.87,12.23-20.12,2.73-6,4.63-10.33,7.07-16.32l.82-1.9c2.45-6.53,5.44-13.87,10.33-19a101.34,101.34,0,0,1,10.33-7.08c4.35-3,9.79-6.79,12.24-8.15a95.93,95.93,0,0,0,19.58-14.41,153.5,153.5,0,0,0,17.13-19.85c.54-.82,1.08-1.63,1.9-2.72s1.43-2,2.15-3a2,2,0,0,1,0,.25,43.39,43.39,0,0,0,1.36,5.71c4.9,22.3,22.3,36.16,45.41,36.44h1.08c19,0,34.53-6.53,48.95-18.49,6.52-5.44,10.33-10.88,15.49-18.22.55-.82,1.37-1.63,1.91-2.45,1-1.45,2-2.84,3-4.25,0,0,0,0,0,0,.34-.47.67-1,1-1.44s.6-.91.89-1.35c1.63-2.73,2.45-4.36,4.08-7.08q1.84-3.07,3.52-6s0,0,0,0c7-12.18,12.16-22.39,18.49-33.41.55-1.36,1.63-3.26,2.45-5.17a10.76,10.76,0,0,0,.81-1.08,20.14,20.14,0,0,1,.82-2.18c.54-.82,2.72,1.63,4.62,3.26,7.89,6.53,15.77,15.23,12.24,26.38-1.9,6.25-3.81,12.5-6,18.76-4.08,12.23-10.06,26.92-6,39.7,2.71,7.61,9,11.14,16.58,11.14,14.41-.27,21.21-6,28.55-13.86,6.52-6.8,12-14.69,16.31-20.94a15.12,15.12,0,0,0,1.91-2.45,99.55,99.55,0,0,0,6.52-9.51,10.25,10.25,0,0,1,1.63-2.72c2.18-3.54,5.17-8.16,5.71-12.24A5.69,5.69,0,0,0,889.39,500.64ZM690.1,471.55v-.28c3-4.35,6.52-9.51,11.14-13.32,7.07-5.43,13.87-8.15,21.76-8.15a26.53,26.53,0,0,1,4.62.27,18.49,18.49,0,0,1,12,5.71,23.34,23.34,0,0,1,5.71,13.86,23.64,23.64,0,0,1-.54,7.62,19.88,19.88,0,0,1-6,10.87c-5.43,6-12.77,9.25-21.75,10.88-5.43.81-13.59,2.18-21.48,2.18h-.81c-4.35,0-8.16-.55-12.24-.82a8.46,8.46,0,0,1-1.9-1.09,2.3,2.3,0,0,1-.54-1.9C681.12,489.23,685.2,478.89,690.1,471.55ZM451.66,445.17c-1.09,1.91-6-4.35-7.34-8.43-2.72-8.43,9.52-12.5,9.52-3.8C453.84,436.21,454.38,440.28,451.66,445.17ZM573.19,596.62c-.27,0-.27.27-.27.55A128.79,128.79,0,0,1,552.53,632a18.59,18.59,0,0,1-7.89,6,13.25,13.25,0,0,1-4.07.82c-2.45,0-4.08-.27-5.17-1.36a8.39,8.39,0,0,1-1.36-5.17c.54-7.07,7.07-15.5,13.32-19.85,2.45-1.9,4.63-3.53,6.8-5.16A141,141,0,0,1,571,595.81c.27-.27.54-.27.54-.55.82-.27,1.36-.81,1.91-.54C573.74,595,573.47,595.54,573.19,596.62Zm34.26-90.54-.54,1.63c-6.26,18.49-18.76,32.9-33.17,38.34l-.55.27c-6.52,2.45-9.24,3.54-16.31,2.18-9.25-1.64-14.68-9-15.23-21.21a77.09,77.09,0,0,1,3.27-29.37,82.19,82.19,0,0,1,12.77-25.28c6.53-8.7,19-17.68,31.27-17.68a27.26,27.26,0,0,1,13,3.27c4.36,2.45,7.35,6.52,9.79,12.23C616.15,481.61,611.26,495.21,607.45,506.08Zm196.29-60.91c-1.09,1.91-6-4.35-7.34-8.43-2.73-8.43,9.51-12.5,9.51-3.8C805.91,436.21,806.46,440.28,803.74,445.17Z"/><path class="cls-1" d="M783.89,516.68c-1.63,2.72-2.45,4.35-4.08,7.08.59-.88,1.13-1.79,1.64-2.73a19.28,19.28,0,0,1,1.63-2.44,56.27,56.27,0,0,0,4.33-7.89Q785.73,513.61,783.89,516.68Z"/><path class="cls-1" d="M997.24,761.69c-2.72-1.9-4.9-2.17-7.07-.82-1.63,1.09-3.26,3.54-5.44,6.8l-.54.82c-1.09,1.9-2.45,3.81-3.81,5.71-.81,1.36-1.9,2.72-2.72,4.08-1.63,2.45-3.8,5.43-5.71,7.88l-1.63,2.18a18.45,18.45,0,0,0-2.17,2.72c-1.91,2.71-7.62,9-12.78,15-5.44,6-11.69,10.06-14.42,8.7-4.07-2.17-3.25-6.53-2.44-10.6A63.31,63.31,0,0,1,942,793.23c3-7.89,6-16,9-23.93a351.48,351.48,0,0,0,11.69-36.16c4.89-18.49-4.62-33.17-24.47-36.16a40.56,40.56,0,0,0-27.46,5.71c-2.64,1.32-7.82,4.92-8.65,7.38,2.93-11.7,2.93-9.29,2.39-11.19-.54-2.17-.81-1.36-2.45-2.44A14.7,14.7,0,0,0,892,694c-1.36.27-2.17.82-2.44,1.9-1.09,2.45-2.18,5.17-3.26,7.61-4.36,10.61-16,45.14-19.85,54.66-.69,1.78-1.39,3.55-2.08,5.32-.84,1.15-1.73,2.57-2.8,4.19-3.81,6.53-8.71,14.14-14.69,19a21.87,21.87,0,0,1-18.76,5.16,109.61,109.61,0,0,0,5.44-15l1.63-6.8c2.18-11.69,4.35-27.46,2.18-41.33-2.18-14.14-9-26.1-24.75-29.37a36.71,36.71,0,0,0-9.51-1.08c-13.6.82-22.57,6-32.09,14.41a69.12,69.12,0,0,0-11.14,13.87c-6.8,10.48-12.11,23.56-15.34,36.74a38.55,38.55,0,0,0-2.6,4l-.55.82c-1.35,1.9-2.44,3.8-3.8,5.71-1.09,1.35-1.91,2.72-3,4.07A151.22,151.22,0,0,1,718,800.57c-4.89,5.17-10.33,13.06-17.94,12-12.51-1.63-7.34-19.31-4.9-27.2,1.09-3,2.18-6.24,3.26-9.51v-.27a20.09,20.09,0,0,0,1.09-3c3.26-9.79,16.86-44.32,20.39-52.21,1.64-3.53,5.17-11.69,7.08-16.59a2.24,2.24,0,0,0,0-1.9c0-.27-.55-.54-1.36-.81a13.53,13.53,0,0,0-3-.27,10,10,0,0,1-2.72-.28,42,42,0,0,0-5.16-.54c-2.72,0-3.54.54-3.81,1.09a14.5,14.5,0,0,0-1.63,3.81l-.81,1.63c-4.9,10.6-10.07,23.11-14.15,33.71l-2.17,5.17c-2.15,5.7-4.22,11.28-6.18,16.79h0a47.26,47.26,0,0,0-3.87,5.49l-.55.82c-1.09,1.9-2.44,3.81-3.8,5.71-.82,1.36-1.91,2.72-2.72,4.08-1.64,2.45-3.81,5.43-5.71,7.88l-1.63,2.18a19.24,19.24,0,0,0-2.18,2.72c-5.17,6.79-10.06,12.77-16.31,17.94-4.35,3.54-9,5.44-12.78,4.63-7.89-1.64-4.35-14.41-2.72-19.58,9.79-26.1,18.76-52.48,28.82-78.58,7.07-19,14.14-38.07,21.48-57.1.54-2.17.54-2.44-1.9-3a36.54,36.54,0,0,0-5.44,0,11.22,11.22,0,0,0-3-.27c-4.35-.28-5.17,0-6.53,4.07-4.35,10.61-8.43,21.22-12.5,31.82-10.59,26.94-21.39,53.88-31.07,81.39,0,0,0,0,0,0l-1.28,1.79c-.81,1.36-1.9,2.72-2.72,4.08-1.63,2.45-3.8,5.43-5.71,7.88l-1.63,2.18a19.13,19.13,0,0,0-2.17,2.72c-5.17,6.79-10.06,12.77-16.32,17.94-4.35,3.54-9,5.44-12.77,4.63-7.89-1.64-4.36-14.41-2.73-19.58,9.79-26.1,18.77-52.48,28.83-78.58,7.06-19,14.13-38.07,21.48-57.1.54-2.17.54-2.44-1.91-3a36.53,36.53,0,0,0-5.44,0,11.18,11.18,0,0,0-3-.27c-4.35-.28-5.16,0-6.52,4.07-4.35,10.61-8.43,21.22-12.51,31.82-10.1,25.72-20.41,51.44-29.75,77.66h0c-1.07,1.59-2.38,3.42-3.68,5.26-.82,1.63-1.91,3-2.72,4.35-1.63,2.17-3.81,5.16-6,7.88a11,11,0,0,1-1.63,1.9,20.37,20.37,0,0,1-2.17,3c-5.44,7.34-10.06,11.14-19.58,17.12-7.34,4.9-16.59,6.8-25.56,6.8a53.08,53.08,0,0,1-6.52-.54c-9-1.36-16.32-5.16-21.48-11.42-5.17-6-7.62-13.6-7.62-22.84.28-1.9.28-2.72,2.18-2.72h3.53a8.49,8.49,0,0,0,2.45.27c3.53.27,6.8.27,10.06.27h.54a144.7,144.7,0,0,0,29.37-3.8l1.09-.27a62.85,62.85,0,0,0,11.42-4.35A43.54,43.54,0,0,0,544.84,762c12.23-11.15,16-32.35,8.7-47-2.72-5.17-11.42-17.67-34.53-17.67h-4.35c-4.08,0-12.51,2.71-16.59,4.88-10.33,5.71-14.41,9.25-20.39,16.59a104.83,104.83,0,0,0-19.41,42l-.16.09c-1.9,1.09-3.26,3.54-5.43,6.8-4.08,7.08-8.43,14.14-14.41,19-5.17,4.35-11.15,6.52-18.22,5.16,3.81-9.51,7.89-21.2,10.06-33.44,3.53-17.68,3.81-37-9.52-42.15a14.56,14.56,0,0,0-5.43-1.35,10,10,0,0,0-2.72-.28c-6.8,0-12.78,3.26-17.4,8.16-6.26,6.53-9.79,16-11.42,23.39-3.54,15.22-4.9,36.7,6,50,1.36,1.36,6.25,5.71,8.7,6.8-3.26,4.89-7.89,10.33-13,13.32a31.87,31.87,0,0,1-15,3.54h-2.17c-11.69-1.36-15.77-12.51-16.86-21.48-1.36-9.52-2.72-20.94-2.17-31.27,9-11.15,33.44-45.4,38.33-54.11l1.9-3.53c3.81-7.07,8.43-14.41,11.15-21.48l.55-1.36c5.16-13.87,12.23-28.28,5.71-40.78-1.91-4.36-5.44-7.08-10.33-8.43a14,14,0,0,0-3.54-.28c-10.06,0-19.58,8.16-24.74,17.67a159.72,159.72,0,0,0-11.69,24.47l-1.64,4.08c-3.53,8.71-7.61,18.76-10.6,29.64-4,14.45-8.37,32.9-9.67,52.53-.39.59-.79,1.2-1.2,1.85l-.54,1.09c-1.09,1.63-2.45,3.53-3.8,5.44-.82,1.63-1.91,3-2.72,4.35-1.63,2.17-3.81,5.16-6,7.88a11,11,0,0,1-1.63,1.9,20.37,20.37,0,0,1-2.17,3c-5.44,7.34-10.06,11.14-19.58,17.12-7.34,4.9-16.58,6.8-25.56,6.8a53.08,53.08,0,0,1-6.52-.54c-9-1.36-16.32-5.16-21.48-11.42-5.17-6-7.61-13.6-7.61-22.84.27-1.9.27-2.72,2.17-2.72h3.53a8.49,8.49,0,0,0,2.45.27c3.53.27,6.8.27,10.06.27h.54a144.7,144.7,0,0,0,29.37-3.8l1.09-.27a62.85,62.85,0,0,0,11.42-4.35A43.54,43.54,0,0,0,308,762c12.23-11.15,16-32.35,8.7-47-2.72-5.17-11.42-17.67-34.53-17.67h-4.35c-4.08,0-12.51,2.71-16.59,4.88-10.33,5.71-14.41,9.25-20.39,16.59a104.76,104.76,0,0,0-19.59,42.94,30.55,30.55,0,0,0-4,5.46l-.54,1.09c-1.09,1.9-2.45,3.8-3.8,5.71a34.33,34.33,0,0,0-2.72,4.07c-1.63,2.45-4.08,5.44-6,7.89l-1.63,2.17a28.85,28.85,0,0,0-2.17,3,95.24,95.24,0,0,1-10.61,12.51l-1.36,1.08c-3.26,3.26-7.88,9-13,10.88a9.69,9.69,0,0,1-7.34-.82c-3.81-1.9-5.71-6.53-7.07-10.6l-.27-.28c-2.45-6.52-4.08-13.86-5.71-20.66-2.18-10.33-4.62-20.93-10.33-30.45v-.27h.54c12.51-.27,22-3.81,32.09-12.24,3-2.44,6-4.89,8.15-8.15a59.79,59.79,0,0,0,7.34-11.7c6.53-13.32,7.35-29.09,6.53-40.24a60.65,60.65,0,0,0-16.86-39.7c-4.89-5.16-11.42-9.51-19.3-13.32a80.05,80.05,0,0,0-33.45-6.8h-3.26a96.9,96.9,0,0,0-31,6.26,83.88,83.88,0,0,0-14.68,7.88c-3.53,2.72-7.34,5.44-10.33,9L68,646.68a17.68,17.68,0,0,0-2.17,2.45c-3.81,4.35-7.07,10-10.06,17.4a61.52,61.52,0,0,0-4.08,20.12c-.54,6-.54,12.23,1.09,18.22,1.9,7.33,5.44,13.59,10.6,20.12l.54.54c1.36,1.63,2.72,3.53,4.9,3.26,1.36,0,5.44-3.53,7.34-7.34,1.09-2.72,1.09-5.17-.27-7.07a59.23,59.23,0,0,1-6.53-11.14,17.26,17.26,0,0,1-.81-5.17,3.48,3.48,0,0,1-.27-1.63c-.82-6.53.27-12.78,1.63-18.49a48.59,48.59,0,0,1,15-25.56c11.69-10.6,26.65-16.05,43-16.05a85.33,85.33,0,0,1,21.48,3c17.13,4.35,29.37,16.59,32.63,32.63,2.17,10.6,1.9,19-.55,29.9-3.26,13.6-10.6,24.47-20.93,30.45-6.53,3.82-13.32,5.45-22.3,5.45-4.35,0-9-.55-14.41-1.1h-1.63c-6.25-.81-13-1.35-19-4.35-.82-.26-.82-.26-.55-1.08,1.36-6.53,3.81-12.24,6.53-18.22.81-1.9,1.9-3.8,2.72-6a147.48,147.48,0,0,1,10.33-22.29l.55-1.37c1.9-3,3.8-6.52,6.25-9,.54-.54.81-1.09,1.36-1.63,3.53-3.54,6.25-6,4.35-12.5-1.36-5.45-4.62-6.8-9-4.08-15.5,10.06-21.48,25.28-28,41.59l-1.36,3.27c-3,7.88-6,16.31-9,24.2l-3.27,9c-1.63,4.89-3.26,9.79-5.16,14.68q-3.67,10.61-8.16,22.84A208.43,208.43,0,0,1,53,809c-3.81,6-10.88,13.06-19,13.87H31c-8.7,0-13.86-4.35-14.41-12.78a28.75,28.75,0,0,1,1.09-9.52,2.58,2.58,0,0,0-.27-2.45A1.84,1.84,0,0,0,15.77,797c-.54,0-1.36-.27-1.9-.27a33.51,33.51,0,0,0-7.35-.28c-2.44.28-3.8,1.09-4.62,3A28.67,28.67,0,0,0,0,806.83c0,2.45.27,5.16.54,8.43C2.17,827,8.7,834.56,20.39,838.37A33.08,33.08,0,0,0,30.72,840c6.53,0,13.6-1.9,20.94-5.17,3.54-1.9,7.88-6.53,11.15-10.06l.81-.81c3.81-4.35,6.53-10.06,9-15.78.81-1.63,1.35-3.53,2.17-5.16a286.52,286.52,0,0,0,12-29.09c1.36-3.26,2.72-6.53,4.08-9.52,2.45-5.44,4.9-10.88,6.26-16.86l.54-.54c.27-.28.27-.28.81-.28,1.91.55,3.81.82,5.72,1.37,3.53.54,7.07,1.36,10.6,2.17a20.4,20.4,0,0,1,11.15,6.26,82.43,82.43,0,0,1,5.43,7.88c3.54,6.26,4.9,13.87,6,21.21.27,1.36.54,3,.81,4.35,1.63,9,3.81,17.68,7.89,25.83a37.1,37.1,0,0,0,10.06,12.5,31.2,31.2,0,0,0,7.34,4.08,23.21,23.21,0,0,0,16.59-.81c5.7-2.72,10.6-7.35,15-12a214.05,214.05,0,0,0,21.75-25.29,25,25,0,0,0,1.91-2.72l1.9-2.61a41.77,41.77,0,0,0,1.34,5.6c4.89,22.3,22.3,36.16,45.4,36.43h1.09c19,0,34.53-6.52,48.94-18.48,6.53-5.44,10.34-10.88,15.5-18.22.53-.8,1.32-1.59,1.87-2.39.61,8.68,2,16.94,5.46,25,3.54,8.43,9.52,14.13,17.95,16.58,12.23,3.54,23.65,2.18,34.53-4.08A43.31,43.31,0,0,0,407,816.61c2.72-3.8,6.53-10.06,6.53-10.06a57.69,57.69,0,0,0,9,1.1c10.6.26,19.57-2.73,27.19-10.34a82.7,82.7,0,0,0,7.54-9.35,6.56,6.56,0,0,1,.06.92,41.85,41.85,0,0,0,1.36,5.71c4.89,22.3,22.29,36.16,45.4,36.43h1.09c19,0,34.53-6.52,48.94-18.48a58,58,0,0,0,4.86-4.54c.26,8.14,3.5,16.36,11.18,20.3,16.06,8.43,32.42-4.89,44.37-18.69.61,7.6,3.92,15,11.09,18.69,18.57,9.75,37.52-9.57,49.62-25.09-.06,6.87,1.47,13.59,5.84,18.57,7.89,9,18.22,8.43,27.47,5.17,10.06-3.54,18.49-12,24.47-20.12,3-3.92,5.82-7.71,8.49-11.59.72,7.81,2.86,15.48,7.54,21.37,9,11.69,22.56,15,37,13.6,11.14-1.36,20.93-8.43,28.28-16.58a65.93,65.93,0,0,0,6.25-8.16,35.31,35.31,0,0,0,10.6,2.18A37.57,37.57,0,0,0,849,804.09Q845.34,814,842,824c-.81,1.9-.54,3,1.09,3.8,1.09.54,1.91.28,2.72.54a24.37,24.37,0,0,0,6.25.28c2.18,0,3.54.54,4.9-1.09,1.63-1.63,3.81-6.25,4.08-7.34,2.17-5.17,5.16-13.32,9.79-26.1,5.16-14.14,9.51-24.75,11.69-30.18,2.44-5.17,6-14.41,9-19,3.27-5.16,7.34-12,11.42-16.58,6.25-6.8,14.14-13.32,23.65-14.68,21.76-2.72,22,13.59,17.41,27.46-5.71,16.86-11.69,31.27-17.41,48.39-3.26,9.25-6.25,18.76-4.62,28.82,1.36,9.25,9.79,13.33,17.68,13.06,7.88,0,15-3.81,19.58-7.89,7.88-7.07,18.21-19.3,25-28.82.81-1.09,1.36-1.9,1.9-2.72a74.29,74.29,0,0,0,6.53-9.51,10.16,10.16,0,0,1,1.63-2.73c2.17-3.25,5.16-7.88,5.71-12A6.14,6.14,0,0,0,997.24,761.69ZM486.65,732.6v-.28c3-4.35,6.53-9.51,11.15-13.32,7.07-5.43,13.87-8.15,21.75-8.15a26.48,26.48,0,0,1,4.62.27,18.49,18.49,0,0,1,12,5.71,24.79,24.79,0,0,1,5.17,21.47,19.87,19.87,0,0,1-6,10.88c-5.43,6-12.78,9.25-21.75,10.88-5.44.81-13.59,2.18-21.48,2.18h-.82c-4.34,0-8.15-.55-12.23-.82a8.46,8.46,0,0,1-1.9-1.09,2.27,2.27,0,0,1-.55-1.9C477.68,750.27,481.76,739.94,486.65,732.6ZM360.77,711.66c2.73-8.42,5.72-15.77,9.25-24.2l1.9-4.62c2.45-5.71,4.9-11.69,8.16-17.13l1.36-3C388,650.21,398,648.31,392.86,666l-.27,1.09c-4.08,13.33-6.26,18.49-16,35.35-3.27,6-10.06,17.13-14.69,24.2a23.71,23.71,0,0,0-2.72,3.8,115.5,115.5,0,0,0-7.06,10.33C354,731.51,358.6,719.28,360.77,711.66ZM249.85,732.6v-.28c3-4.35,6.53-9.51,11.15-13.32,7.07-5.43,13.87-8.15,21.75-8.15a26.48,26.48,0,0,1,4.62.27,18.49,18.49,0,0,1,12,5.71,24.79,24.79,0,0,1,5.17,21.47,19.87,19.87,0,0,1-6,10.88c-5.43,6-12.78,9.25-21.75,10.88-5.44.81-13.59,2.18-21.48,2.18h-.82c-4.34,0-8.15-.55-12.23-.82a8.46,8.46,0,0,1-1.9-1.09,2.27,2.27,0,0,1-.55-1.9C240.88,750.27,245,739.94,249.85,732.6ZM417.6,745.1a152.71,152.71,0,0,1-3.81,20.67c-1.9,8.43-3.53,15.23-8.15,23.39-7.07-1.91-9.79-10.06-10.33-19.31-.55-10.61,1.9-22.84,4.08-28,1.9-4.89,4.62-9,8.42-11.42a8.15,8.15,0,0,1,4.08-1.36c3.54,0,5.71,4.08,6,8.16A38.44,38.44,0,0,1,417.6,745.1Zm388.51,55.75c-4.35,6.25-10.06,10.33-16.86,13.59-10.33,4.89-23.38.82-29.36-8.7l-1.64-3.81c-7.07-20.93,6.8-56.55,18.49-72.32,4.9-6.8,13.87-15.5,23.93-15.78,3.54,0,2.18,2.45.54,5.72-4.89,10.6-8.16,19.85-9.51,31.54-1.36,16,1.35,32.9,13.59,44.86C807.2,797.85,807.74,798.67,806.11,800.85Zm17.13-52.21c0,8.43-3.81,27.19-8.43,34.8-5.71-3-7.89-16-8.16-21.75-.81-13,3.26-28.55,10.33-39.43.82-1.35,2.18-1.35,2.72,0C824,732.32,823.24,738.58,823.24,748.64Z"/><path class="cls-1" d="M741.13,672.51a12.59,12.59,0,1,0-25,3,12.59,12.59,0,1,0,25-3Z"/><path class="cls-1" d="M636.79,108H363.22A13.09,13.09,0,0,1,350,95.8a7.71,7.71,0,0,1,0-.78v-6c0-.18,0-.35,0-.52V85.26c0-.14,0-.27,0-.41v-1C350,43.45,397.19,0,500.8,0,594.19,0,650,42.61,650,83.81l-9.49.07H650V95A13.12,13.12,0,0,1,636.79,108ZM369,91.41H631V83.9h0v-.07c0-27.11-41.38-67.22-130.21-67.22C410.24,16.59,369,51.44,369,83.81v.64c0,.14,0,.27,0,.41v4.21c0,.18,0,.35,0,.52Z"/><path class="cls-1" d="M616.88,300H383.1c-17.79,0-32.17-15.4-33-35.2a6.4,6.4,0,0,1-.07-.93V234.34c.2-7,6-12.34,13.21-12.34H636.78c7.17,0,13,5.29,13.2,12.06v.1c0,.11,0,.22,0,.33V240c0,.15,0,.3,0,.44v23.43a6.49,6.49,0,0,1-.07.93C649.06,284.6,634.68,300,616.88,300ZM369,263.17c0,.18,0,.35,0,.53.31,12.1,7.67,20.52,14.08,20.52H616.88c6.41,0,13.77-8.43,14.08-20.52,0-.18,0-.35,0-.53V240c0-.15,0-.3,0-.44v-1.78H369Zm262-28.64h0a.43.43,0,0,0,0,.07Z"/><path class="cls-1" d="M565,163.13a2.55,2.55,0,0,0,1,1.44,2.21,2.21,0,0,0,1.84.53q2.7-.24,9.18-.93t14.82-1.47q8.33-.78,17.39-1.69l16.89-1.73q7.83-.81,13.35-1.33t6.72-.73q3.42-.38,3.78,1.55.31,1.69-3,2.79-4.5,1.32-13.72,3.39t-20.52,4.39q-11.29,2.32-23.6,4.58t-22.9,4.32q-10.59,2.07-18.55,3.53l-10.37,1.9a2.17,2.17,0,0,1-2.85-2A6.87,6.87,0,0,1,535,179q.63-2,1.58-4.28t1.58-4.28a6.85,6.85,0,0,0,.5-2.71q-.4-2.17-2.85-2-1,.18-8.25,1.26t-17.8,2.89L487,173.81q-12.21,2.11-23.35,3.91t-19.51,3.08a94.16,94.16,0,0,1-11.11,1.29q-3.51-.11-3.82-1.79A8.5,8.5,0,0,1,430,177q.9-2.54,2.11-5.5t2.09-5.62a9.1,9.1,0,0,0,.71-3.62q-.31-1.69-2.24-1.33-2.65.49-9.14,1.18l-14.79,1.59q-8.31.9-17.39,1.69T374.57,167q-7.71.79-13.11,1.28t-6.6.71q-4.34.8-4.83-1.86-.31-1.69,2.83-2.26,4.06-1,13.06-2.89t20.42-4.24q11.41-2.34,24.06-4.79l23.84-4.62q11.2-2.18,19.62-3.85t11.32-2.2q2.17-.4,2.53,1.53a7.15,7.15,0,0,1-.82,3q-1,2.29-2.24,4.77t-2.24,4.78a7.16,7.16,0,0,0-.82,3q.31,1.69,2.48,1.29,1-.18,8.22-1.38t18.14-3.08q10.88-1.87,23.59-4t24.31-4.08q11.6-2,20.67-3.54t12.45-2.16q2.17-.4,2.53,1.53.18,1-1.31,3.73t-3.15,5.94q-1.66,3.17-3.15,5.94T565,163.13Z"/></svg>