<svg id="Layer_1" data-name="Layer 1" xmlns="http://www.w3.org/2000/svg" viewBox="0 0 1000 385"><defs><style>.cls-1{fill:#b49759;}</style></defs><title>Web Horizontal Logo - Gold</title><path class="cls-1" d="M95.39,300.91A33,33,0,0,1,97,313.71c-.3,6.4-2.38,15.18-7.29,20.84a26.73,26.73,0,0,1-7.29,5.66l-.45.3-.15.15a21.33,21.33,0,0,1-6.1,1.64,25.41,25.41,0,0,1-5.8.45H68.75a54.66,54.66,0,0,1-8.33-.89,132.37,132.37,0,0,1-13.54-4,96.57,96.57,0,0,1-12.35-6.25c-.3.15-.45.45-.6.6-1.19,1.34-2.83,3.13-4.91,5.06A21.76,21.76,0,0,1,15.32,342a19.19,19.19,0,0,1-6-.89C5.64,339.76.88,336.93.14,330.23a16.87,16.87,0,0,1,4-13.54,16.41,16.41,0,0,1,12.35-5.36A15,15,0,0,1,23.8,313l5.36,2.68a6,6,0,0,1,1.34.74,40.85,40.85,0,0,0,1.79-4.76c1-3.27,1.93-6.7,2.83-10,1-4,2.23-8.19,3.42-12.2,3.27-10.57,6.25-20.09,11.31-28.57a69.09,69.09,0,0,1,5.66-8.33,20.76,20.76,0,0,1,3.72-3.27,6.48,6.48,0,0,1,5.8-1,11.78,11.78,0,0,1,3.12,1.49,2.42,2.42,0,0,1,.6,3.42,5.13,5.13,0,0,1-1.34,1.79,34,34,0,0,0-6.25,7.59,69.32,69.32,0,0,0-5.21,9.38,34.61,34.61,0,0,0-2.08,6.4c6.7,1.93,8.93,2.08,12.06,2.23,4.91.15,10.27,0,14.88-3.87,4.17-3.27,6.4-8,7.29-14.14,1.64-11.91-4.17-22.92-14.73-27.68a38.11,38.11,0,0,0-19.65-3.13A44.94,44.94,0,0,0,27.82,243a36.25,36.25,0,0,0-9.38,14.29l-.89,3.12-.15.6c-.89,7.14.3,13.84,3.57,18.16a45.38,45.38,0,0,0,3.72,3.57l.45.6c2.23,2.08,2.53,3,.74,5.21-.45.6-.74,1.19-1,1.64a.15.15,0,0,1-.15.15l-.15.45a7.45,7.45,0,0,0-1,1.19.15.15,0,0,0-.15.15,4.38,4.38,0,0,1-1.93.74,3.14,3.14,0,0,1-1.49-.6c-8.78-4.91-13.54-14.88-13.1-27.53.15-9.52,4.17-19,10.42-26.34a49.39,49.39,0,0,1,22.92-14.73A57.51,57.51,0,0,1,53,221.29c1.49-.15,3.13-.3,4.61-.3,10.72,0,20.39,3,27.53,8.33a33.46,33.46,0,0,1,10.72,12.95c5.8,12.2,4.61,26.94-2.68,36.61a29.66,29.66,0,0,1-8.48,7.59c-.3.15-.45.3-.6.3a1.59,1.59,0,0,0-.74.45v.15a22.11,22.11,0,0,1,6.55,5.36C91.81,295.11,94,297.64,95.39,300.91Zm-82.9,28.87A6.17,6.17,0,0,0,16.21,331c3.57,0,7.29-2.68,9.23-5.21a.15.15,0,0,1,.15-.15v-.15c-2.38-1.64-6.25-3.42-9.52-3.42-2.38,0-4,.89-4.76,3A4.23,4.23,0,0,0,12.49,329.79ZM86.31,307c-1.49-6.1-3-7.59-8-11a23.37,23.37,0,0,0-5.8-2.83,5.29,5.29,0,0,0-1.34-.6,13.32,13.32,0,0,0-4.32-1.34c-1.34-.3-2.53-.45-3.72-.74-2.08-.45-4-.74-6.1-1a18.48,18.48,0,0,0-4-.45c-1-.15-1.93-.15-2.83-.3H50l-.15.15a33.59,33.59,0,0,0-1.93,4.91c-.74,3.13-1.64,6.4-2.53,9.38s-1.79,5.8-2.53,8.63c-.3,1.79-.89,3.72-1.34,5.36a37.17,37.17,0,0,0-1.19,5.36c.6,1.34,7.74,4,10.12,4.91.74.3,1.34.6,1.79.74a40.68,40.68,0,0,0,14.14,3.72,22.36,22.36,0,0,0,3,.3c9.67,0,16.37-7,17.41-18.16A28.12,28.12,0,0,0,86.31,307Z"/><path class="cls-1" d="M180.28,309.53a.12.12,0,0,0,.09-.13Zm.69-1.18-.26.46c.54-.84,1.09-1.73,1.57-2.64C181.86,306.88,181.42,307.61,181,308.35Z"/><path class="cls-1" d="M431.6,298.23q-2.68-2-4.92-.44c-1.19.74-2.08,2.08-3.27,3.87l-.3.59c-.59.9-1.19,1.94-1.93,3-.6.89-1.19,1.64-1.64,2.38-.74,1.34-2.08,2.83-3.12,4.32l-.9,1c-.44.59-.74,1-1.19,1.64l-.89,1.19c-2.68,3.57-6.55,8.63-10.27,10.41-1.49.6-2.53.75-3.27-.15s-1.05-2.67-.75-4.91a45.5,45.5,0,0,1,3.42-10.71c.75-1.94,1.49-3.87,2.09-5.81,1.49-4.46,2.68-10,.74-16.07-1-3.87-3.87-7.74-7.44-10.71-.3-.15-.59-.45-1-.75-1.64-1.19-4-3.12-4.32-4.46-.15-.3,0-.6.15-1.05,2.23-5.35,1.79-12-1-16.22-2.38-3.72-6.4-5.06-11.16-3.87a11.32,11.32,0,0,0-7.59,5.06c-1.64,2.68-1.94,6.11-.89,10s3,7,6.69,10.42q.45.23.45.45l-.15.45c-.74,2.08-1.64,3.72-2.23,5.2l-.15.3c-4.17,8-6.7,13.4-12.8,22.47a10.19,10.19,0,0,1-1,1.64c-.45.67-.94,1.42-1.4,2.14l-.06.09c-.51.69-1,1.39-1.52,2.09L359,313a9.25,9.25,0,0,0-1.19,1.49c-2.83,3.72-5.21,5.8-10.42,9.22a26.54,26.54,0,0,1-13.55,3.58,24.18,24.18,0,0,1-3.42-.3,18.26,18.26,0,0,1-11.31-6,16.89,16.89,0,0,1-3.87-11.9v-.6H316c.44,0,.89.15,1.34.15h1.48a33.82,33.82,0,0,0,5.51.15h.15a71.52,71.52,0,0,0,16.37-2.08l.6-.15a38.21,38.21,0,0,0,6.54-2.38,29,29,0,0,0,6.55-4.32c7-6.4,9.08-18.45,4.91-26.94-1.49-3.12-6.55-10.26-19.64-10.12h-2.38a26.86,26.86,0,0,0-9.53,2.68c-5.8,3.13-8.18,5.21-11.46,9.38a57.56,57.56,0,0,0-10.92,23.22,13.81,13.81,0,0,0-2.47,3.42l-.45.3a.15.15,0,0,1-.15.15c-.3.59-.59,1-.89,1.63s-.6,1-.89,1.49a14.12,14.12,0,0,0-1.79,2.38c-.45.75-1.19,1.79-1.94,2.83-.29.45-.74,1-1,1.49l-.89,1-.45.45c-.29.44-.59.74-.89,1.19a76.3,76.3,0,0,1-6.85,7.59,36.76,36.76,0,0,1-4.61,3.42l-3.27,2.23a.46.46,0,0,0-.3.15c.3-.89.59-1.79.89-2.53a6.08,6.08,0,0,0,.3-1c1.49-3.72,2.53-7.59,3.57-10.42l.75-1.93h.14c.15-.75.75-2.68,1.49-5.06.6-1.64,1.19-3.28,1.79-5.06.89-2.83,1.78-5.66,2.53-7.89s1.34-3.87,1.49-4.47l.29-1.19a80,80,0,0,0,2.53-8c.15-.6.3-1.19.45-1.64.3-.74.45-1.34.75-2.08A14.57,14.57,0,0,1,296,275c.3-1,.6-1.94.89-3.13v-.15c0-.15.15-.29.15-.44s.15-.3.15-.45c.3-1.19,1-3.42-.59-4.91-.9-1-2.83-1.19-4.62-1.34h-1c-.74,0-2.83.3-3.57,1.49a52.64,52.64,0,0,0-2.68,7.14c-4.32-6.84-9.82-8.93-16.67-9.23h-1.34c-8.18,0-16.67,4.62-21.58,9.38a47.82,47.82,0,0,0-7.89,10.57,56.34,56.34,0,0,0-5.78,15.93c-.38.53-.77,1.12-1.21,1.78l-.3.59c-.59.9-1.19,1.94-1.93,3-.6.89-1.19,1.64-1.64,2.38-.74,1.34-2.08,2.83-3.13,4.32l-.89,1c-.45.59-.74,1-1.19,1.64l-.89,1.19c-2.68,3.57-6.55,8.63-10.27,10.41-1.49.6-2.53.75-3.28-.15s-1-2.67-.74-4.91a45.5,45.5,0,0,1,3.42-10.71c.75-1.94,1.49-3.87,2.09-5.81,1.49-4.46,2.68-10,.74-16.07-1-3.87-3.87-7.74-7.44-10.71-.3-.15-.6-.45-1-.75-1.64-1.19-4-3.12-4.32-4.46-.15-.3,0-.6.15-1.05,2.23-5.35,1.79-12-1-16.22-2.38-3.72-6.4-5.06-11.16-3.87a11.28,11.28,0,0,0-7.59,5.06c-1.64,2.68-1.94,6.11-.9,10s3,7,6.7,10.42q.45.23.45.45l-.15.45c-.75,2.08-1.64,3.72-2.23,5.2l-.15.3c-4.17,8-6.7,13.4-12.8,22.47a10.19,10.19,0,0,1-1,1.64l-1,1.56,0,0c-.75.9-1.49,1.89-2.23,2.88l-.59.74a53.28,53.28,0,0,1-7,8.48c-2.83,2.68-5.36,4-7.44,4a5.6,5.6,0,0,1-4.17-2.23c-1.78-1.79-1.78-5.06.15-10.27,1.19-3.57,2.68-7.44,4.91-12.5.75-1.34,1.19-2.68,1.94-4,1.49-3.42,3-6.85,4.31-10.42l.75-1.78c.29-.6,1.49-3.28,2.53-6a54.57,54.57,0,0,0,3.12-7.74l.15-.14.15-.45a9.74,9.74,0,0,0,.74-2.53,1.62,1.62,0,0,0-.14-1.19,1.52,1.52,0,0,0-1-.6,16.07,16.07,0,0,0-5.21-.89,5.69,5.69,0,0,0-3.72,1.64,25.43,25.43,0,0,0-1.93,4,9,9,0,0,0-.75,1.78L153,272a5.57,5.57,0,0,0-.6,1.64c-1.78,3.72-3.12,7.29-4.61,11.16-2.09,5.21-4.17,10.72-7.15,17A4.55,4.55,0,0,0,140,303c-.45.74-.75,1.49-1,2.08A77.71,77.71,0,0,1,131.41,317c-3.43,4.46-6.55,7-9.53,8-3.42,1-6.4.75-7.89-1.48-2.08-2.83-2.08-8.79.45-15.93,5.06-15.33,10.86-29.17,15.63-40.78a.15.15,0,0,0,.15-.15v-.15c0-.14.14-.44.14-.59a1.56,1.56,0,0,0-.29-.75c-.15-.14-.3-.14-.45-.29a.15.15,0,0,1-.15-.15,1.14,1.14,0,0,0-.74-.3h-.3c-.15,0-.3-.15-.45-.15a36.93,36.93,0,0,1-3.72-.3h-.89a4.74,4.74,0,0,0-4.61,2.53c-1,2.24-2.24,5.06-3.43,8.19s-2.53,6.4-3.72,9.23a166.79,166.79,0,0,0-6.1,15.92l-.3.6c-2.38,6.84-4.46,14.28-3.42,21.43a19.63,19.63,0,0,0,3.27,9.08,15.61,15.61,0,0,0,12.8,6.25,6.08,6.08,0,0,0,1.64-.15c5.06-.45,10.42-3.28,16.07-8.78,0-.15.15-.3.3-.45.15,0,.15-.15.3-.15,3.57,4.91,6.4,7.59,12.5,8,5.8.45,11.16-1.49,16.22-6.4,3.13-2.83,6-6.85,9.82-11.76.45-.59.9-1,1.2-1.49a5.38,5.38,0,0,1,.53-.81s0,0,0,0l.09-.1.54-.69c.74-1.19,1.63-2.38,2.38-3.72a12.11,12.11,0,0,1,.74-1.19.12.12,0,0,0,.06,0l.09-.13.15-.3.19-.29.26-.46c.45-.74.89-1.47,1.31-2.18,2.66-4.48,4.82-8.56,6.87-12.4,1.19-2.23,2.53-4.61,3.87-7.14.3-.6.75-1.49,1.34-2.68.15-.15.3-.3.3-.45s.15-.15.15-.3l.15-.29.44.44a4,4,0,0,0,.9.75c5.8,4.76,7.88,9.07,6.55,13.54-1.34,3.87-2.24,7-3.43,10.27-.15.59-.44,1.34-.59,1.93-2.24,6.4-4.77,13.7-2.53,20.39,1.34,4.17,4.91,6.7,9.82,6.7h.15c8.33,0,12.35-3.57,16.37-7.89A84.19,84.19,0,0,0,231,318.33l.14-.17a24.86,24.86,0,0,0,6,12.22,18.29,18.29,0,0,0,13.39,5.51,27.83,27.83,0,0,0,7.29-1,23.4,23.4,0,0,0,7.74-3.58c-.3.75-.59,1.64-.89,2.39a12.69,12.69,0,0,0-.74,1.63l-.15.45a2.24,2.24,0,0,1-.45.89c-.3.45-.3.6-.74.75-1.49.89-13,7.88-17,10.27-7,4-12.06,8.33-15.48,13.24-3,4.32-4.46,9.38-4,13.39a11.92,11.92,0,0,0,7.89,9.83,17,17,0,0,0,5.36.89c5.06,0,10.42-2.83,15.48-8.78a48,48,0,0,0,6.84-11.16c1.64-3.57,2.68-6,4-9.08l.45-1c1.49-3.43,2.83-7.44,5.35-10.12.3-.3,2.54-1.64,5.66-3.87l1-.75c2.09-1.34,4.47-3,5.51-3.72a48.51,48.51,0,0,0,11-8,82,82,0,0,0,9.53-11c.29-.44.59-.89,1-1.49l.12-.17c.09.48.2,1,.33,1.51,2.82,12.51,12.65,20.54,25.89,20.54h.6c10.12,0,18.9-3.27,27.38-10.27,3.57-3,5.66-6,8.34-9.67l.29-.45a8.64,8.64,0,0,1,1-1.34c.49-.74,1-1.48,1.53-2.22l0-.07c.41-.59.82-1.2,1.21-1.79,0,0,0,0,0,0a18.37,18.37,0,0,1,1.1-1.94.05.05,0,0,1,0,0c.12-.2.25-.4.39-.61l.6-1c.65-1.07,1.28-2.12,1.87-3.14h0c2.41-4.1,4.41-7.87,6.31-11.43,1.19-2.23,2.53-4.61,3.87-7.14.3-.6.75-1.49,1.34-2.68.15-.15.3-.3.3-.45s.15-.15.15-.3l.15-.29.44.44a4,4,0,0,0,.9.75c5.8,4.76,7.89,9.07,6.55,13.54-1.34,3.87-2.24,7-3.43,10.27-.15.59-.44,1.34-.59,1.93-2.23,6.4-4.76,13.7-2.53,20.39,1.34,4.17,4.91,6.7,9.82,6.7h.15c8.33,0,12.35-3.57,16.37-7.89a84.19,84.19,0,0,0,8.33-10.71l.6-.75a8.54,8.54,0,0,1,1-1.34v-.15a47.38,47.38,0,0,0,3.57-5.35,9.61,9.61,0,0,1,.9-1.34c1.19-1.94,3-4.62,3.27-7A4.15,4.15,0,0,0,431.6,298.23Zm-114.16-1a34.74,34.74,0,0,1,5.36-13.69,33.31,33.31,0,0,1,6-7.14A17.16,17.16,0,0,1,340.07,272a10.49,10.49,0,0,1,2.23.15h.15c2.53.45,4.46,1.19,6,2.83a12.18,12.18,0,0,1,2.83,7,10.89,10.89,0,0,1-.15,3.87,10.42,10.42,0,0,1-3.13,5.51c-2.82,3.12-6.69,4.91-11.46,5.65a75.06,75.06,0,0,1-11.6,1.19h-.45c-2.23,0-4.32-.29-6.4-.44-.3,0-.45-.15-.6-.15Zm-127-29.46a8.49,8.49,0,0,1-2.53-3.87,2.72,2.72,0,0,1,.3-2.54,2.14,2.14,0,0,1,1.79-.89c1,0,1.19,1,1.19,1.64v.45A10,10,0,0,1,190.49,267.73Zm54.92,102.83a9.41,9.41,0,0,1-4,3,5.1,5.1,0,0,1-1.78.45c-1.19,0-1.79-.15-2.09-.45a3.12,3.12,0,0,1-.59-2.23c.29-3.57,3.72-7.89,7-10.12,1.34-1,2.53-1.94,3.72-2.83a85.83,85.83,0,0,1,8.49-6A71.94,71.94,0,0,1,245.41,370.56Zm30.21-69.2-.44,1.19c-3.43,9.82-10.12,17.12-17.71,20.39l-.15.15-.3.15a12.33,12.33,0,0,1-5.51,1.34,26.44,26.44,0,0,1-2.83-.3c-6-1-7.29-6.4-7.59-10.72a44.58,44.58,0,0,1,1.64-15.33l.15-.59a41.4,41.4,0,0,1,6.85-13.54c3.42-4.62,10-9.38,16.52-9.38a14.7,14.7,0,0,1,6.69,1.64,11.32,11.32,0,0,1,4.91,6.25C280.24,288.26,277.56,295.56,275.62,301.36Zm108.05-33.63a8.49,8.49,0,0,1-2.53-3.87,2.72,2.72,0,0,1,.3-2.54,2.14,2.14,0,0,1,1.79-.89c1,0,1.19,1,1.19,1.64v.45A9.77,9.77,0,0,1,383.67,267.73Z"/><path class="cls-1" d="M180.22,309.55a12.11,12.11,0,0,0-.74,1.19c-.75,1.34-1.64,2.53-2.38,3.72l-.54.69.09-.1a27.91,27.91,0,0,0,2.09-2.83,24.23,24.23,0,0,1,1.54-2.69A.12.12,0,0,1,180.22,309.55Zm.3-.45-.15.3.34-.59Z"/><path class="cls-1" d="M374.15,308.35l-.6,1c-.14.21-.27.41-.39.61.15-.23.33-.48.54-.76a43.37,43.37,0,0,0,2.32-4C375.43,306.23,374.8,307.28,374.15,308.35Zm-1.34,2.39a3.58,3.58,0,0,1,.33-.69A18.37,18.37,0,0,0,372,312C372.31,311.57,372.57,311.16,372.81,310.74Z"/><path class="cls-1" d="M370.82,313.8c.35-.46.72-1,1.1-1.58L372,312C371.64,312.6,371.23,313.21,370.82,313.8Z"/><path class="cls-1" d="M998.05,298.09c-1.94-1.34-3.43-1.49-5.06-.45-1,.74-1.94,2.08-3.28,4l-.3.44a33.94,33.94,0,0,1-2.08,3.13,5.52,5.52,0,0,1-.74,1.19,4.52,4.52,0,0,1-.75,1,39,39,0,0,1-3.12,4.32L982,313c-.59.59-1.19,1.34-1.34,1.49a40.6,40.6,0,0,1-4.31,5.21c-.9,1-1.79,2.08-2.68,3-2.68,3.13-5.36,4.62-6.4,4.62h-.3c-1.49-.9-1.34-2.39-.89-4.77a35.93,35.93,0,0,1,1.93-5.95c.9-2.08,1.64-4.32,2.53-6.55s1.64-4.46,2.38-6.55c2.83-7.44,4.77-13.54,6.55-19.94,1.34-5.36.75-10.12-1.78-13.84-2.53-4-6.85-6.55-12.5-7.29a23.61,23.61,0,0,0-15.78,3.12A23,23,0,0,0,947,267l.3-.74a3.18,3.18,0,0,0,.15-1.94c0-.15,0-.15-.15-.15-.15-1-.45-1.48-1.19-1.78a.55.55,0,0,1-.45-.15,8.71,8.71,0,0,0-5.21-1.64,2.85,2.85,0,0,0-1,.15,2.25,2.25,0,0,0-2.08,1.64c-.3.59-.6,1.34-.9,2.08s-.59,1.34-.89,2.08c-1.34,3.13-3.72,10-6.1,16.67-1.94,5.66-3.87,11-4.91,13.4-.34.86-.67,1.72-1,2.57-.36.48-.71,1-1.09,1.59-2.23,3.73-4.91,8.49-8.48,11.17-2.68,1.93-5.21,3.12-8.34,2.82a52.83,52.83,0,0,0,2.53-7.29,19.06,19.06,0,0,0,.9-3.72c1.93-9.52,2.23-17,1.19-23.07q-2.23-14.5-14.29-17a20.73,20.73,0,0,0-5.51-.6c-8,0-13.09,3.57-18.3,8.19a42.09,42.09,0,0,0-6.25,7.74,71.41,71.41,0,0,0-8.54,20.36,0,0,0,0,0,0,0c-.42.6-.88,1.3-1.43,2.1l-.29.45c-.3.59-.75,1-1,1.63a8.4,8.4,0,0,1-1,1.49,3.21,3.21,0,0,0-.74,1.19,6.33,6.33,0,0,0-.89,1,87.35,87.35,0,0,1-9.08,12.36,10.17,10.17,0,0,1-1.19,1.33c-2.09,2.39-4.47,4.92-7.15,4.92h-.59a3.69,3.69,0,0,1-2.83-1.64c-1.94-3,0-9.53.89-12.06.45-1.63,1.19-3.42,1.79-5.2v-.3a11.56,11.56,0,0,1,.44-1.19l.15-.3C836,300,843.56,281,845.5,276.51c.89-1.94,2.82-6.4,3.86-9.23a1.55,1.55,0,0,0,0-1.64c-.14-.59-.89-.89-1.33-1h-.15a28.33,28.33,0,0,0-3-.3h-.15a24.78,24.78,0,0,0-3-.3c-1.05,0-2.39.15-3,1.05a12.64,12.64,0,0,0-.89,2.23l-.45.74v.15c-2.68,5.21-5.06,12.2-7.74,18.6l-1.34,2.83c-1.26,3-2.44,6.18-3.56,9.42-.4.51-.78,1.11-1.2,1.74l-.6.9-.3.44a33.94,33.94,0,0,1-2.08,3.13l-.74,1.19-.75,1L816,311.78l-.9,1.19a16.52,16.52,0,0,0-1.19,1.49,51.12,51.12,0,0,1-8.78,9.67c-2.23,1.93-4.61,2.83-6.25,2.38a2.19,2.19,0,0,1-1.49-.89c-.59-1-1-3.42.75-8.63,2.08-6.25,4.61-12.65,6.84-18.76,2.83-8,6-16.37,8.93-24.4,3.87-10.27,7.74-21,11.91-31.41v-.14a2.86,2.86,0,0,0,0-1.94,2.62,2.62,0,0,0-1.79-.89c-1-.15-2.08,0-3.12-.15h-2.83c-2.08,0-2.68.89-3.42,2.83-2.23,5.95-4.62,11.75-6.85,17.56l-2.38,6.1c-4.63,11.53-9.27,23.43-13.59,35.49a0,0,0,0,0,0,0l-.24.37-.3.44a36.13,36.13,0,0,1-2.08,3.13l-.75,1.19-.74,1-3.13,4.32-.89,1.19a16.53,16.53,0,0,0-1.19,1.49,51.8,51.8,0,0,1-8.78,9.67c-2.23,1.93-4.61,2.83-6.25,2.38a2.16,2.16,0,0,1-1.49-.89c-.59-1-1-3.42.74-8.63,2.09-6.25,4.62-12.65,6.85-18.76,2.83-8,6-16.37,8.93-24.4,3.87-10.27,7.74-21,11.91-31.41v-.14a2.93,2.93,0,0,0,0-1.94,2.64,2.64,0,0,0-1.79-.89c-1-.15-2.08,0-3.12-.15h-2.83c-2.09,0-2.68.89-3.43,2.83-2.23,5.95-4.61,11.75-6.84,17.56l-2.38,6.1c-4.63,11.52-9.26,23.41-13.58,35.46l-.27.41-.29.44c-.6,1-1.34,1.94-1.94,3v.15a22.65,22.65,0,0,0-1.64,2.23c-.89,1.34-2.08,2.83-3.12,4.32l-.89,1.19a9.24,9.24,0,0,0-1.19,1.49c-2.83,3.72-5.21,5.8-10.42,9.22a26.51,26.51,0,0,1-13.55,3.58,24.18,24.18,0,0,1-3.42-.3,18.26,18.26,0,0,1-11.31-6,16.89,16.89,0,0,1-3.87-11.9v-.6h.75c.44,0,.89.15,1.34.15h1.48a33.82,33.82,0,0,0,5.51.15h.15a71.45,71.45,0,0,0,16.37-2.08l.6-.15a37.91,37.91,0,0,0,6.54-2.38,29,29,0,0,0,6.55-4.32c7-6.4,9.08-18.45,4.91-26.94-1.49-3.12-6.55-10.26-19.64-10.12h-2.38a26.86,26.86,0,0,0-9.53,2.68c-5.8,3.13-8.18,5.21-11.46,9.38A57.42,57.42,0,0,0,698.87,298a12.29,12.29,0,0,0-2.21,2.79c-2.82,4.77-5.35,8.49-8.63,11.17-2.53,2.08-5.06,3.12-8,2.82a101,101,0,0,0,5.2-17.41c2.54-13.39.6-21.73-5.8-24.26a23.43,23.43,0,0,0-3.27-.89,7.29,7.29,0,0,0-1.64-.15c-3.72,0-7.29,1.79-10.27,4.76-4,4.32-5.8,10.27-6.55,13.4-1.34,5.65-4,20.09,3.42,28.27l.15.15a20.76,20.76,0,0,0,4,3.28c-1.34,1.93-3.57,4.76-6.25,6.25a16.47,16.47,0,0,1-7.74,1.78h-1.19c-6.1-.74-7.74-7.14-8.33-11-.6-5.06-1.49-11.16-1.19-16.67,5.21-6.4,18.45-24.85,21-29.61l1-1.94,1.79-3.27a79.65,79.65,0,0,0,4.46-8.63l.3-.75a21.12,21.12,0,0,1,1-2.68c2.68-7,5.21-14,2.09-20.54a8.75,8.75,0,0,0-8.49-5.35c-4.16,0-10.26,2.68-14.58,10.27a103.73,103.73,0,0,0-6.4,13.54l-.89,2.23a155.07,155.07,0,0,0-6,16.37c-2,7.44-4.58,18-5.3,29.46l-.2.31-.3.44c-.6,1-1.34,1.94-1.94,3v.15a21,21,0,0,0-1.63,2.23c-.9,1.34-2.09,2.83-3.13,4.32l-.89,1.19a9.25,9.25,0,0,0-1.19,1.49c-2.83,3.72-5.21,5.8-10.42,9.22a26.5,26.5,0,0,1-13.54,3.58A24.32,24.32,0,0,1,594,327a18.26,18.26,0,0,1-11.31-6,16.89,16.89,0,0,1-3.87-11.9v-.6h.75c.44,0,.89.15,1.34.15h1.48a33.85,33.85,0,0,0,5.51.15H588a71.45,71.45,0,0,0,16.37-2.08l.6-.15a37.9,37.9,0,0,0,6.54-2.38,29,29,0,0,0,6.55-4.32c7-6.4,9.08-18.45,4.91-26.94-1.48-3.12-6.54-10.26-19.64-10.12H601a26.92,26.92,0,0,0-9.53,2.68c-5.8,3.13-8.18,5.21-11.46,9.38a56.3,56.3,0,0,0-11.71,28.34,19.29,19.29,0,0,1-1.39,1.87c-.59.89-1,1.64-1.49,2.38a23.91,23.91,0,0,1-2.53,3.28c-.15.29-.44.59-.74,1l-.89,1c-.3.45-.15.45-.45.74s-.45.6-.6.75c-2.08,2.53-5.35,6.25-5.35,6.25l-1.19,1.34a15.12,15.12,0,0,0-1.49,1.64,18.12,18.12,0,0,1-5.36,4.16c-.3,0-.6.15-1,.15a3.56,3.56,0,0,1-2.09-.59h-.14c-1.79-.9-2.68-3.13-3.43-5.21,0-.15-.15-.3-.15-.45l-.29-1c-.75-3.42-2.09-7.59-2.68-9.68l-.15-.29c-1.64-5.36-2.38-10.87-5.06-15.78,6.55-.3,11.61-2.38,17-6.84a26.93,26.93,0,0,0,4.62-4.62,43.61,43.61,0,0,0,4.17-6.55c4-8.33,4-17.71,3.72-22.62a35,35,0,0,0-9.53-22.32,36.75,36.75,0,0,0-10.86-7.59,45.91,45.91,0,0,0-18.76-3.72H520.3A51,51,0,0,0,502.89,224a33.93,33.93,0,0,0-8.34,4.47L494,229a29.35,29.35,0,0,0-5.21,4.47l-1.34,1.78a9.55,9.55,0,0,0-1.19,1.34,35,35,0,0,0-7.89,21.13,31.57,31.57,0,0,0,.59,10.27,30.39,30.39,0,0,0,6,11.46.15.15,0,0,1,.15.15l.15.15.14.3c.9.89,1.79,1.93,3.43,1.78,1.34,0,3.87-2.38,4.76-4.46v-.15a4.28,4.28,0,0,0-.3-4.76,64.37,64.37,0,0,1-3.42-6,12.81,12.81,0,0,1-.3-2.38.53.53,0,0,0-.15-.44v-.6a29.57,29.57,0,0,1,8.78-23.36A33.54,33.54,0,0,1,521,231.26a42.46,42.46,0,0,1,11.46,1.49C541.58,235,548,241.53,549.77,250a34,34,0,0,1-.3,15.93c-1.64,7.29-5.66,13.1-11,16.07a21.25,21.25,0,0,1-11.76,3c-2.08,0-4.17-.3-6.55-.45l-1.34-.15h-.89l-1.19-.15c-2.83-.44-6-.74-8.64-2.08a43.35,43.35,0,0,1,3.58-9.52,11,11,0,0,0,.44-1.19,8.68,8.68,0,0,0,1-2.09,71.75,71.75,0,0,1,5.51-12l.15-.15.15-.6a7.41,7.41,0,0,1,.74-1,23.74,23.74,0,0,1,2.53-3.72c.3-.15.45-.3.45-.6a.31.31,0,0,0,.3-.29l.3-.15c1.78-1.94,3.42-3.57,2.38-7.59-.9-3.28-2.68-3.72-3.72-3.72a5.68,5.68,0,0,0-2.68.89c-8.63,5.36-11.76,13.84-15.48,22.77l-.89,2.38c-.9,2.09-1.79,4.32-2.53,6.55-.9,2.23-1.64,4.47-2.53,6.7L496,283.65c-.89,2.68-1.79,5.36-2.83,8q-2,5.81-4.46,12.5a107,107,0,0,1-9.53,20.24c-2.08,3.27-5.65,6.69-9.67,7.14h-1.64c-4.31,0-6.7-2.08-7-6.1a17.64,17.64,0,0,1,.59-4.76,2.37,2.37,0,0,0-.3-2.24,1.82,1.82,0,0,0-1.63-1h-.3a1.34,1.34,0,0,0-.74-.15c-.9,0-1.94-.14-3-.14h-1.19a3.52,3.52,0,0,0-3.28,2.23,13.38,13.38,0,0,0-1.19,4.31v.15c0,1.19.15,2.38.3,3.87v.9c.6,6.69,4.91,11.16,11.61,13.39a19.07,19.07,0,0,0,6,.89,27.06,27.06,0,0,0,11.91-2.83c2.08-1,4.32-3.72,6.4-5.8l.45-.45c2.38-2.38,3.72-5.8,5.06-8.78a7.63,7.63,0,0,0,.59-1.63,5.43,5.43,0,0,0,.6-1.34,152.36,152.36,0,0,0,6.54-15.93c.75-1.78,1.49-3.57,2.24-5.21a43.49,43.49,0,0,0,3.42-9.08c.45.15.89.15,1.34.3s1,.15,1.49.3l.15.15c1.78.15,3.87.74,5.65,1a11.74,11.74,0,0,1,5.66,3.13l.59.89c.9,1.19,1.64,2.38,2.23,3.27,1.94,3.43,2.54,7.44,3.28,11.46,0,.3.15.75.15,1.19l.3,1.19a53.36,53.36,0,0,0,4.31,14.44,20.19,20.19,0,0,0,5.81,7.14,19.69,19.69,0,0,0,4.31,2.39,12.39,12.39,0,0,0,4.17.74,14.28,14.28,0,0,0,5.65-1.19c3.43-1.64,6.11-4.47,8.49-6.85a127.86,127.86,0,0,0,11.08-12.71c3.24,11.69,12.8,19.11,25.53,19.11h.6c10.12,0,18.9-3.27,27.38-10.27a44.34,44.34,0,0,0,7.88-9,38.73,38.73,0,0,0,2.84,11.12c2.08,5.06,5.51,8.33,10.42,9.67a26.53,26.53,0,0,0,7.44,1,25.87,25.87,0,0,0,12.2-3.27,26.24,26.24,0,0,0,8.34-7.44,46.1,46.1,0,0,0,3.27-4.91A34.26,34.26,0,0,0,679,325a2.23,2.23,0,0,0,1,.15c8.6.23,13.93-3.93,18.61-9.87.14.63.26,1.28.44,2,2.82,12.51,12.65,20.54,25.89,20.54h.6c10.12,0,18.9-3.27,27.38-10.27.53-.44,1-.89,1.5-1.33.54,4.19,2.5,8.16,6.39,10.26a15.87,15.87,0,0,0,6.25,1.49c7,0,13.75-5.72,18.8-11.39.62,4.05,2.57,7.87,6.36,9.9a15.83,15.83,0,0,0,6.25,1.49c7.91,0,15.46-7.29,20.65-13.55a14.37,14.37,0,0,0,3.31,8.19,12.76,12.76,0,0,0,9.67,4.32,22.78,22.78,0,0,0,6.55-1.19c6.25-2.23,11-7.44,13.84-11.46,1.1-1.43,2.24-2.94,3.39-4.54a22.14,22.14,0,0,0,4,10.05c4.17,5.2,10.12,7.88,17.86,7.88a27.28,27.28,0,0,0,3.42-.15c7.15-.74,12.66-5.5,16.08-9.37a24.3,24.3,0,0,0,3.12-4,15.07,15.07,0,0,0,5.51,1,22.05,22.05,0,0,0,8.43-1.54q-1.65,4.59-3.22,9.13c-.59,1.64-.3,2.68,1,3.43a8.52,8.52,0,0,0,1.34.29h.3a6.18,6.18,0,0,0,2.08.3c.3,0,.6-.15.9-.15h1.49c.14.15.29.15.59.15a2.53,2.53,0,0,0,2.08-1,11.34,11.34,0,0,0,2.39-4.32c1.19-2.82,2.67-6.84,5.5-14.43,2.38-6.7,4.47-11.91,5.81-15.18l.59-1.34c.3-.9.89-2.09,1.34-3.28a76.9,76.9,0,0,1,3.42-7l.75-1.19c1.78-2.68,3.57-5.81,5.51-7.89,4.16-4.61,8.33-7.14,12.35-7.74s7.14.3,8.63,2.23c2.23,3.28,1,8.63,0,11.61-1.49,4.47-3.13,8.63-4.61,12.65-1.64,4.47-3.28,9.08-4.92,14-1.93,5.36-3.57,10.57-2.67,16.37.89,5.51,5.8,7.89,10.26,7.89h.45a17.9,17.9,0,0,0,11.61-4.61c4-3.58,9.67-10.42,13.69-15.93.45-.59.75-1,1-1.49,1.19-1.63,2.53-3.42,3.72-5.35v-.15c.15-.3.45-.75.75-1.34,1.49-2.09,3.12-4.62,3.42-7A4.68,4.68,0,0,0,998.05,298.09Zm-287.25-.9a34.74,34.74,0,0,1,5.36-13.69,33.31,33.31,0,0,1,6-7.14A17.16,17.16,0,0,1,733.43,272a10.49,10.49,0,0,1,2.23.15h.15c2.53.45,4.46,1.19,6,2.83a12.18,12.18,0,0,1,2.83,7,10.89,10.89,0,0,1-.15,3.87,10.42,10.42,0,0,1-3.13,5.51c-2.82,3.12-6.69,4.91-11.46,5.65a75.05,75.05,0,0,1-11.6,1.19h-.45c-2.23,0-4.32-.29-6.4-.44-.3,0-.45-.15-.6-.15ZM645.32,276.8l1.64-5.06c1.49-4.76,3.42-8.78,5.06-13.24v-.15l.44-1.19a3,3,0,0,0,.6-1.19l.45-1a72.05,72.05,0,0,1,4-8.34v-.15l.75-1.49c1.78-3.27,3.72-4.76,4.61-4.76.15,0,.3,0,.3.15.15.15.74,1.34-.45,5.66l-.15.59c-1.78,7.15-3.27,9.82-8.63,19.2-1.78,3.13-5.5,9.23-8,13.25l-.44.44-1.19,1.79-.45.74-.15.15C644.13,280.37,644.72,278.59,645.32,276.8ZM581,297.19a34.57,34.57,0,0,1,5.35-13.69,33.07,33.07,0,0,1,6-7.14A17.12,17.12,0,0,1,603.65,272a10.49,10.49,0,0,1,2.23.15H606c2.53.45,4.46,1.19,5.95,2.83a12.18,12.18,0,0,1,2.83,7,10.89,10.89,0,0,1-.15,3.87,10.42,10.42,0,0,1-3.13,5.51c-2.82,3.12-6.69,4.91-11.46,5.65a75.06,75.06,0,0,1-11.6,1.19H588c-2.23,0-4.32-.29-6.4-.44-.3,0-.45-.15-.59-.15Zm95.39-7.44c-.44,3.57-1.19,7.15-2.08,11.16-1,4-1.78,7.74-4,11.91-3.12-1.34-4.17-5.8-4.31-9.53a40.51,40.51,0,0,1,2.23-14.88c1-2.83,2.38-4.76,4.17-5.8a3.52,3.52,0,0,1,1.78-.6c1.34,0,2.23,1.79,2.38,3.57A41.61,41.61,0,0,1,676.42,289.75ZM891.33,320a20.94,20.94,0,0,1-8.92,7.15,15.46,15.46,0,0,1-4.17,1h-.6c-4-.3-8-2.09-10.12-5.51l-.44-.89a2.79,2.79,0,0,1-.3-1c-3.72-10.72,3.27-29.92,10-38.85,1.34-1.93,6.25-8.18,12.35-8.33h.3l-.89,1.78c-2.68,5.66-4.62,10.87-5.21,17.72-1,10.86,1.64,19.49,7.74,25.44l.74.75A3.37,3.37,0,0,0,891.33,320Zm9.23-30.51v2.24c0,4.16-1.63,13.24-3.87,17.71-2.08-1.94-3.12-7.15-3.27-10.57a36.12,36.12,0,0,1,5.51-21C900.71,282.31,900.71,285.29,900.56,289.45Z"/><path class="cls-1" d="M857.25,249.72a7.86,7.86,0,0,0-7.74-7h-1a8,8,0,0,0,1,15.93,1.9,1.9,0,0,0,.9-.15,7,7,0,0,0,5.21-3A7.44,7.44,0,0,0,857.25,249.72Z"/><path class="cls-1" d="M570.22,55.44H429.78A6.72,6.72,0,0,1,423,49.18a4,4,0,0,1,0-.4V45.72c0-.09,0-.18,0-.27V43.77c0-.07,0-.14,0-.21V43c0-20.72,24.22-43,77.41-43C548.35,0,577,21.88,577,43l-4.87,0H577v5.72A6.73,6.73,0,0,1,570.22,55.44ZM432.75,46.92H567.25V43.07h0v0c0-13.92-21.24-34.51-66.84-34.51-46.49,0-67.66,17.89-67.66,34.51v.33c0,.07,0,.14,0,.21v2.16c0,.09,0,.18,0,.27Z"/><path class="cls-1" d="M560,154H440c-9.13,0-16.52-7.9-17-18.07a3.29,3.29,0,0,1,0-.48V120.29a6.6,6.6,0,0,1,6.78-6.33H570.22a6.59,6.59,0,0,1,6.78,6.19v0c0,.06,0,.11,0,.17v2.83c0,.08,0,.15,0,.23v12a3.33,3.33,0,0,1,0,.48C576.52,146.1,569.13,154,560,154ZM432.75,135.1c0,.09,0,.18,0,.27.16,6.21,3.94,10.53,7.23,10.53H560c3.29,0,7.07-4.33,7.23-10.53,0-.09,0-.18,0-.27V123.2c0-.08,0-.15,0-.23v-.92H432.75Zm134.51-14.7h0a.22.22,0,0,0,0,0Z"/><path class="cls-1" d="M533.36,83.74a1.31,1.31,0,0,0,.52.74,1.13,1.13,0,0,0,.95.27q1.39-.13,4.71-.48t7.61-.75q4.28-.4,8.93-.87l8.67-.89q4-.42,6.85-.68T575,80.7q1.76-.19,1.94.8t-1.53,1.43q-2.31.68-7,1.74t-10.53,2.25q-5.8,1.19-12.11,2.35T534,91.49q-5.44,1.06-9.52,1.81l-5.33,1a1.11,1.11,0,0,1-1.47-1,3.53,3.53,0,0,1,.26-1.39q.33-1,.81-2.2t.81-2.2a3.52,3.52,0,0,0,.26-1.39,1.19,1.19,0,0,0-1.47-1q-.49.09-4.23.65T505,87.21l-11.66,2q-6.27,1.09-12,2t-10,1.58a48.34,48.34,0,0,1-5.7.66q-1.8-.05-2-.92a4.36,4.36,0,0,1,.4-1.67q.46-1.3,1.08-2.82t1.07-2.88a4.67,4.67,0,0,0,.36-1.86q-.16-.87-1.15-.68-1.36.25-4.69.6l-7.59.82q-4.27.46-8.93.87t-8.62.81q-4,.4-6.73.66t-3.39.37q-2.23.41-2.48-1-.16-.87,1.45-1.16,2.08-.51,6.7-1.49L441.65,81q5.86-1.2,12.35-2.46l12.24-2.37,10.07-2q4.32-.86,5.81-1.13,1.11-.2,1.3.79a3.67,3.67,0,0,1-.42,1.55q-.49,1.18-1.15,2.45t-1.15,2.45a3.67,3.67,0,0,0-.42,1.55q.16.87,1.27.66l4.22-.71,9.31-1.58q5.58-1,12.11-2t12.48-2.1l10.61-1.82q4.65-.79,6.39-1.11,1.11-.2,1.3.79a3.86,3.86,0,0,1-.67,1.92q-.76,1.42-1.62,3t-1.62,3A4.21,4.21,0,0,0,533.36,83.74Z"/></svg>