<svg xmlns="http://www.w3.org/2000/svg" viewBox="0 0 1000 480"><title>br-text</title><path d="M259.73,116.17c-1.36.82-2.72,1.08-3.54,2.72a0.81,0.81,0,0,0,0,1.08c0.55,0.27.82,0.55,1.36,0.82A32.76,32.76,0,0,1,268.7,130c3.81,4.35,7.61,9,9.79,14.68a53.48,53.48,0,0,1,3,22.57c-0.55,12.78-4.62,27.73-12.78,37.25-3.81,4.35-9,7.34-13.87,10.33a38.7,38.7,0,0,1-10.61,3,65.94,65.94,0,0,1-25.29-.81,183.75,183.75,0,0,1-26.65-7.35c-6-2.18-16-7.34-23.38-12-0.55-.55-4.35,5.71-10.88,11.15-8.16,7.34-22.84,10.61-34.26,6.79-7.88-2.71-14.41-8.43-15.77-18.49a31,31,0,0,1,7.07-23.38c7.34-8.16,21.48-12.24,33.72-6.25l9.79,4.89a11,11,0,0,1,2.44,1.36c1.09,0.81,1.36.81,2.18-.55a92.66,92.66,0,0,0,3.54-9.24c4.08-13.33,7.07-27.19,11.42-40.52,5.44-17.67,11.15-35.61,20.39-51.66,3.26-5.17,6.52-10.06,10.33-15a31.14,31.14,0,0,1,6.25-5.71c2.72-2.18,5.71-2.45,9.24-1.63A22.2,22.2,0,0,1,229.55,52c1.36,1.09,1.63,2.45.54,3.81a12.05,12.05,0,0,1-2.18,3c-4.62,4.08-8.16,9-11.69,14.14a154.63,154.63,0,0,0-9.52,17.41c-1.9,4.34-4.89,13.32-3.81,13.87,13.05,3.81,17.4,4.08,23.38,4.35,10.6,0.27,20.12-.55,28.55-7.35,8.43-7.07,12.51-16.59,13.87-27.18,3.26-22-7.61-43.23-28-52.21a73.91,73.91,0,0,0-36.71-6,84.3,84.3,0,0,0-48.13,21.21C148,43.84,141.45,54.18,138.19,64a63.29,63.29,0,0,0-1.9,6.8c-1.63,11.42-.27,25.29,6.8,34.53,1.9,2.45,4.35,4.62,7.88,7.88,3.54,3.54,3.54,4.08,1.09,7.35a22.89,22.89,0,0,0-2.18,3.26,11.65,11.65,0,0,1-2.44,2.72c-1.36,1.08-2.45,1.36-4.08.27-16.86-9.52-23.66-29.09-23.11-48.67a76.05,76.05,0,0,1,18.76-47c10.87-12.51,25-21.21,41.06-26.38A108.85,108.85,0,0,1,202.9.35c19.85-1.64,41.6,2.44,57.64,14.41a60.1,60.1,0,0,1,19,22.83c9.79,20.94,8.7,47.31-4.9,65.25A50.57,50.57,0,0,1,259.73,116.17Zm-106,71.24c-6.8-5.16-23.93-12-28.55,0-1.36,3.53-.55,8.16,2.72,10.61,8.43,6.25,20.67-.27,26.1-7.61C155.32,189,155.32,188.5,153.69,187.41Zm96.25-53.84a51,51,0,0,0-10.88-5.44c-3.53-1.36-6.8-3-10.6-3.53-6.25-1.09-11.69-2.45-17.95-3.27-4.35-.81-8.7-0.81-12.78-1.36-1.09,0-1.91.27-2.18,1.36a64.62,64.62,0,0,0-3.54,9.25c-2.72,11.14-6.52,22-9.24,32.9-1.9,8.16-4.89,17.4-4.89,20.12,0,3.53,17.4,9.51,22.84,11.69,10.06,4.35,15.77,5.72,26.37,7.07,22.29,3,37-11.69,39.15-34.26,0.27-3,0-10.33-.82-13.33C262.45,143.09,259.73,140.1,249.94,133.57Z" style="fill:#b49759"/><path d="M436.72,146.35c-0.54,4.08-3.53,8.7-5.71,12.24a9.53,9.53,0,0,0-1.63,2.45c-1.9,3.53-4.35,6.53-6.52,9.79a15.1,15.1,0,0,1-1.9,2.45c-5.44,7.61-11.42,15.23-18.22,21.48-9,8.7-18.22,12-28,11.14-10.61-.81-15.5-5.44-21.75-14.41-1.36-1.63-2.72.55-3.54,1.09-10.06,9.79-19.3,14.95-28.28,15.77-10.06.82-18.49-2.72-24.74-10.61A34.78,34.78,0,0,1,290.71,182c-1.9-13.05,2.18-26.65,6.25-38.34s6.8-19.58,11.42-29.91c4.62-10.61,9.51-23.92,13.05-31.81,1.63-3,4.35-3.54,7.07-3.54h1.36a66.65,66.65,0,0,0,7.07.55,2.44,2.44,0,0,0,1.36.27c0.27,0.27.82,0.55,1.09,0.82a11.77,11.77,0,0,0-.27,1.36c-9.52,22.29-19.58,47-28.82,74.23-1.63,5.16-6.53,22-.55,30.72,3.26,4.35,9,6,16.59,3.26,6.53-1.9,12.78-8.16,18.22-15.22a126.81,126.81,0,0,0,13.87-22c0.81-1.9,1.9-3.81,3-6,9.51-20.12,14.41-35.61,21.48-51.39,0.27-.54.81-1.9,1.36-3.26,1.63-3.53,3.81-9,4.9-10.33,0.81-1.08,3.53-2.18,5.44-2.18a32.76,32.76,0,0,1,9,1.36c0.81,0.27,1.09.55,0.81,1.36A20.44,20.44,0,0,1,403,86.27l-0.27,1.08c-1.09,3.26-9.51,22.57-10.33,25L391,115.63c-3.54,9-7.61,17.68-11.42,26.37a201.42,201.42,0,0,0-9.24,22.84c-2.18,6-4.89,15.5.27,20.67,7.61,8.43,16.59,3.27,23.66-3.26,6-6,10.87-12.78,14.14-17.13,2.18-2.72,4.35-5.71,6-7.88,0.81-1.36,1.9-2.72,2.72-4.35,1.36-1.9,2.72-3.81,3.81-5.44l0.54-1.09c2.18-3,3.54-5.44,5.44-6.79,2.18-1.36,4.35-1.09,7.07.81A6.37,6.37,0,0,1,436.72,146.35Z" style="fill:#b49759"/><path d="M540,146.35c-0.54,4.08-3.53,8.7-5.71,12.24a10.27,10.27,0,0,0-1.63,2.72,99.26,99.26,0,0,1-6.52,9.51,15.1,15.1,0,0,1-1.9,2.45c-4.35,6.25-9.79,14.14-16.31,20.94-7.34,7.88-14.14,13.59-28.55,13.87-7.61,0-13.87-3.53-16.59-11.14-4.08-12.78,1.9-27.46,6-39.7,2.18-6.25,4.08-12.51,6-18.76,3.54-11.14-4.35-19.85-12.24-26.37-1.9-1.63-4.08-4.08-4.62-3.26a18.14,18.14,0,0,0-.82,2.18,10.83,10.83,0,0,1-.81,1.08c-0.81,1.9-1.9,3.81-2.44,5.16-7.34,12.78-13.05,24.47-22,39.43-1.63,2.72-2.45,4.35-4.08,7.07a21.6,21.6,0,0,1-3.81,4.89,10.63,10.63,0,0,1-8.16,3.81c-4.08,0-9.24-3.26-6.53-8.16,1.9-3,4.89-7.34,6.8-10.33,11.15-16.86,16-26.92,23.66-41.88,1.36-3,3-6.25,4.35-9.51a7.18,7.18,0,0,1,.81-2.18A13.72,13.72,0,0,1,443,99c-6.52-6.25-9.79-11.42-11.69-18.49-3.81-13.32,2.44-22.57,14.14-25.28,21.48-4.9,26.37,19.57,20.12,34.53a4.72,4.72,0,0,0-.27,2.72c0.82,4.08,7.61,8.42,10.61,10.87,5.71,4.62,10.87,11.15,13.05,18.49,3,9.79,1.63,18.76-1.63,28.28-3,10.06-8.43,19.85-10.06,30.72-1.09,8.43,1.9,14.41,9.79,10.88,8.16-3.81,15.77-14.68,20.94-21.75a19.26,19.26,0,0,0,2.18-2.72l1.63-2.18c2.18-2.72,4.35-5.44,6-7.88,0.81-1.36,1.9-2.72,2.72-4.35,1.36-1.9,2.72-3.81,3.81-5.44l0.54-1.09c2.18-3,3.54-5.44,5.44-6.79,2.18-1.36,4.35-1.09,7.07,1.08A5.7,5.7,0,0,1,540,146.35ZM453.84,72.94c0-8.7-12.24-4.62-9.52,3.81,1.36,4.08,6.25,10.33,7.34,8.43C454.38,80.28,453.84,76.21,453.84,72.94Z" style="fill:#b49759"/><path d="M672.16,146.35c-0.27,4.08-3.26,8.7-5.71,12a23.88,23.88,0,0,1-1.63,2.72,71.79,71.79,0,0,1-6.25,9.51c-0.82,1.09-1.36,1.9-1.9,2.72a152.15,152.15,0,0,1-17.13,19.85A95.65,95.65,0,0,1,620,207.53c-2.44,1.36-7.88,5.17-12.24,8.16a102.57,102.57,0,0,0-10.33,7.07c-4.89,5.16-7.88,12.51-10.33,19l-0.82,1.9c-2.44,6-4.35,10.33-7.07,16.31-3,6.25-6.8,13.59-12.24,20.12C558,290.19,549,295.35,540,295.35a26,26,0,0,1-9-1.63c-7.61-2.71-12.78-9-13.32-16.31-0.81-7.07,2.18-16,7.07-23.11,6.25-9,15.23-16.59,27.46-23.66,7.34-4.35,28.28-16.86,31-18.49a5.67,5.67,0,0,0,2.18-2.72l0.27-.27c1.36-3.54,4.89-11.42,5.71-14.41-6.25,4.62-10.06,7.07-18.22,9.51a56.14,56.14,0,0,1-12.78,1.9,31.38,31.38,0,0,1-23.11-9.51c-8.16-8.7-12.51-22.29-11.69-37.8,0.54-16.31,4.08-29.37,12.24-44.59A84.66,84.66,0,0,1,552,95.51c8.43-8.16,23.38-16.59,37.79-16.59h2.45c13.05,1.09,23.11,4.62,30.72,19.31,1.63-5.44,4.62-14.14,6-16.31,0.81-1.36,3.53-1.9,4.89-1.9l0.27,0.27c3,0,7.34,0,9,1.63,1.9,1.9,1.36,4.62.54,7.34a6.46,6.46,0,0,0-.54,2.18c-0.81,2.72-1.63,5.17-2.45,7.88-0.81,2.18-1.36,4.35-2.18,6.8-1.36,5.71-3.26,11.14-5.17,16.86-0.54,1.9-4.08,12.24-7.34,22.29-2.72,8.43-5.44,16.31-6,18.49l-1.36,3.53c-1.9,6-4.08,12.51-6.53,18.76-0.81,2.45-3,8.16-3.26,10.61a20,20,0,0,1,4.08-2.18l4.9-3.27a90.86,90.86,0,0,0,9.79-7.34A156,156,0,0,0,640.35,170a20.67,20.67,0,0,1,2.17-3l1.63-1.9c1.9-2.72,4.35-5.71,5.71-8.16a38.76,38.76,0,0,1,3-4.08c1.09-1.9,2.45-3.81,3.54-5.71l0.81-.82c1.9-3.26,3.54-5.71,5.44-6.79,1.9-1.36,4.08-1.09,7.07.81C671.62,141.73,672.44,143.64,672.16,146.35Zm-98.7,88.37c-0.55-.27-1.09.27-1.9,0.55a1,1,0,0,1-.55.55,140.6,140.6,0,0,0-16.86,11.42c-2.18,1.63-4.35,3.26-6.8,5.16-6.25,4.35-12.78,12.78-13.32,19.85a8.38,8.38,0,0,0,1.36,5.16c1.09,1.09,2.72,1.36,5.17,1.36a13.37,13.37,0,0,0,4.08-.82,18.55,18.55,0,0,0,7.88-6,128.89,128.89,0,0,0,20.39-34.8c0-.27,0-0.55.27-0.55C573.47,235.54,573.74,235,573.47,234.72Zm0.27-48.67c14.41-5.44,26.92-19.85,33.17-38.34l0.55-1.64c3.81-10.87,8.7-24.47,4.35-35.61-2.44-5.71-5.44-9.79-9.79-12.24A27.33,27.33,0,0,0,589,95c-12.24,0-24.74,9-31.27,17.68a82.13,82.13,0,0,0-12.78,25.28,76.93,76.93,0,0,0-3.26,29.37c0.54,12.24,6,19.57,15.23,21.21,7.07,1.36,9.79.27,16.31-2.18Z" style="fill:#b49759"/><path d="M788.52,146.35c-0.27,4.08-3.26,8.7-5.44,12.24a18.31,18.31,0,0,0-1.63,2.45c-1.9,3.53-4.35,6.53-6.53,9.79-0.54.82-1.36,1.63-1.9,2.45-5.17,7.35-9,12.78-15.5,18.22-14.41,12-29.91,18.49-48.94,18.49H707.5c-23.11-.27-40.51-14.14-45.41-36.43a43.27,43.27,0,0,1-1.36-5.71c0-1.09-.27-1.9-0.27-2.72-2.72-22,5.44-47.58,20.67-67.43,6-7.34,10.06-10.88,20.39-16.59,4.08-2.18,12.51-4.89,16.59-4.89h4.35c23.11,0,31.81,12.5,34.53,17.67,7.34,14.68,3.53,35.89-8.7,47a43.51,43.51,0,0,1-11.69,7.61,62.4,62.4,0,0,1-11.42,4.35l-1.09.27A145,145,0,0,1,694.72,157h-0.54c-3.26,0-6.53,0-10.06-.27a8.36,8.36,0,0,1-2.45-.27h-3.53c-1.9,0-1.9.82-2.18,2.72,0,9.24,2.44,16.86,7.61,22.84,5.17,6.25,12.51,10.06,21.48,11.42a52.64,52.64,0,0,0,6.53.55c9,0,18.22-1.9,25.56-6.8,9.52-6,14.14-9.79,19.58-17.12a21,21,0,0,0,2.18-3,11.77,11.77,0,0,0,1.63-1.9c2.18-2.72,4.35-5.71,6-7.88,0.82-1.36,1.9-2.72,2.72-4.35,1.36-1.9,2.72-3.81,3.81-5.44l0.54-1.09c1.91-3,3.54-5.44,5.44-6.79,2.18-1.36,4.35-1.09,7.07,1.08C788,141.73,788.8,143.9,788.52,146.35Zm-98.43-34.8c-4.89,7.35-9,17.68-10.06,25.83a2.3,2.3,0,0,0,.54,1.9,8.85,8.85,0,0,0,1.9,1.08c4.08,0.27,7.89.82,12.24,0.82h0.82c7.88,0,16-1.36,21.48-2.18,9-1.63,16.31-4.9,21.75-10.88a19.88,19.88,0,0,0,6-10.88,24.8,24.8,0,0,0-5.17-21.48,18.48,18.48,0,0,0-12-5.71A26.25,26.25,0,0,0,723,89.8c-7.88,0-14.68,2.72-21.75,8.16-4.62,3.81-8.16,9-11.15,13.32v0.27Z" style="fill:#b49759"/><path d="M892.1,146.35c-0.54,4.08-3.53,8.7-5.71,12.24a10.27,10.27,0,0,0-1.63,2.72,99.26,99.26,0,0,1-6.52,9.51,15.1,15.1,0,0,1-1.9,2.45c-4.35,6.25-9.79,14.14-16.31,20.94-7.34,7.88-14.14,13.59-28.55,13.87-7.61,0-13.87-3.53-16.59-11.14-4.08-12.78,1.9-27.46,6-39.7,2.18-6.25,4.08-12.51,6-18.76,3.54-11.14-4.35-19.85-12.24-26.37-1.9-1.63-4.08-4.08-4.62-3.26a18.14,18.14,0,0,0-.82,2.18,10.83,10.83,0,0,1-.81,1.08c-0.81,1.9-1.9,3.81-2.44,5.16-7.34,12.78-13.05,24.47-22,39.43-1.63,2.72-2.45,4.35-4.08,7.07a21.6,21.6,0,0,1-3.81,4.89,10.63,10.63,0,0,1-8.16,3.81c-4.08,0-9.24-3.26-6.53-8.16,1.9-3,4.89-7.34,6.8-10.33,11.15-16.86,16-26.92,23.66-41.88,1.36-3,3-6.25,4.35-9.51a7.18,7.18,0,0,1,.81-2.18A13.72,13.72,0,0,1,795,99c-6.52-6.25-9.79-11.42-11.69-18.49-3.81-13.32,2.44-22.57,14.14-25.28C819,50.37,823.86,74.84,817.6,89.8a4.72,4.72,0,0,0-.27,2.72c0.82,4.08,7.61,8.42,10.61,10.87,5.71,4.62,10.87,11.15,13.05,18.49,3,9.79,1.63,18.76-1.63,28.28-3,10.06-8.43,19.85-10.06,30.72-1.09,8.43,1.9,14.41,9.79,10.88C847.24,188,854.85,177.07,860,170a19.26,19.26,0,0,0,2.18-2.72l1.63-2.18c2.18-2.72,4.35-5.44,6-7.88,0.81-1.36,1.9-2.72,2.72-4.35,1.36-1.9,2.72-3.81,3.81-5.44l0.54-1.09c2.18-3,3.54-5.44,5.44-6.79,2.18-1.36,4.35-1.09,7.07,1.08A5.7,5.7,0,0,1,892.1,146.35ZM805.91,72.94c0-8.7-12.24-4.62-9.52,3.81,1.36,4.08,6.25,10.33,7.34,8.43C806.46,80.28,805.91,76.21,805.91,72.94Z" style="fill:#b49759"/><path d="M232.47,407.4c-0.54,3.81-3.53,8.7-5.71,12a10.14,10.14,0,0,0-1.63,2.72c-1.91,3.26-4.35,6.53-6.53,9.51a23.94,23.94,0,0,1-1.9,2.72,213.42,213.42,0,0,1-21.75,25.29c-4.35,4.62-9.24,9.24-15,12a23.22,23.22,0,0,1-16.59.81,31.62,31.62,0,0,1-7.34-4.08A37.17,37.17,0,0,1,146,455.8c-4.08-8.16-6.25-16.86-7.88-25.83-0.27-1.36-.55-3-0.82-4.35-1.09-7.34-2.44-14.95-6-21.2a83.31,83.31,0,0,0-5.44-7.88,20.41,20.41,0,0,0-11.15-6.25c-3.53-.82-7.07-1.64-10.6-2.18-1.9-.55-3.81-0.82-5.71-1.36a0.77,0.77,0,0,0-.81.27l-0.27.27-0.27.27c-1.36,6-3.81,11.42-6.25,16.86-1.36,3-2.72,6.25-4.08,9.51a285.84,285.84,0,0,1-12,29.09c-0.81,1.63-1.36,3.53-2.17,5.16-2.45,5.72-5.17,11.42-9,15.78l-0.81.81c-3.26,3.53-7.61,8.16-11.15,10.06C44.32,478.1,37.25,480,30.72,480a32.94,32.94,0,0,1-10.33-1.63C8.7,474.56,2.17,466.95.54,455.26,0.27,452,0,449.28,0,446.83a28.72,28.72,0,0,1,1.9-7.34c0.81-1.91,2.18-2.72,4.62-3a33.69,33.69,0,0,1,7.34.27c0.54,0,1.36.27,1.9,0.27a1.83,1.83,0,0,1,1.63,1.08,2.55,2.55,0,0,1,.27,2.45,28.6,28.6,0,0,0-1.09,9.51c0.55,8.43,5.71,12.78,14.41,12.78h3c8.16-.81,15.23-7.88,19-13.87a207.72,207.72,0,0,0,17.67-37.25q4.49-12.24,8.16-22.84c1.91-4.89,3.54-9.79,5.17-14.68l3.26-9c3-7.88,6-16.31,9-24.2l1.36-3.27c6.53-16.31,12.51-31.54,28-41.6,4.35-2.72,7.61-1.36,9,4.08,1.9,6.52-.81,9-4.35,12.5-0.54.55-.81,1.09-1.36,1.64-2.45,2.44-4.35,6-6.25,9l-0.55,1.36A147.36,147.36,0,0,0,111.75,347c-0.81,2.18-1.9,4.08-2.72,6-2.72,6-5.17,11.69-6.53,18.22-0.27.82-.27,0.82,0.55,1.08,6,3,12.78,3.54,19,4.35h1.63c5.44,0.55,10.06,1.09,14.41,1.09,9,0,15.77-1.63,22.29-5.44,10.33-6,17.67-16.85,20.93-30.45,2.45-10.87,2.72-19.3.55-29.91-3.26-16-15.5-28.28-32.63-32.63a85.21,85.21,0,0,0-21.48-3c-16.31,0-31.27,5.44-43,16a48.71,48.71,0,0,0-15,25.56c-1.36,5.71-2.44,12-1.63,18.49a3.43,3.43,0,0,0,.27,1.63,17.07,17.07,0,0,0,.81,5.17,59.32,59.32,0,0,0,6.52,11.14c1.36,1.9,1.36,4.35.27,7.07-1.9,3.81-6,7.34-7.34,7.34-2.18.27-3.53-1.63-4.89-3.26L63.35,365c-5.17-6.53-8.7-12.78-10.61-20.12-1.63-6-1.63-12.24-1.09-18.22a61.59,61.59,0,0,1,4.08-20.12c3-7.35,6.25-13.05,10.06-17.41A17.78,17.78,0,0,1,68,286.68l2.45-3.26c3-3.53,6.8-6.25,10.33-9a84.17,84.17,0,0,1,14.68-7.88,96.83,96.83,0,0,1,31-6.25h3.26a79.94,79.94,0,0,1,33.44,6.8c7.88,3.81,14.41,8.16,19.3,13.32a60.66,60.66,0,0,1,16.86,39.7c0.81,11.14,0,26.92-6.53,40.24a60,60,0,0,1-7.34,11.7c-2.18,3.26-5.17,5.71-8.16,8.16-10.06,8.42-19.58,12-32.08,12.24h-0.55v0.27c5.71,9.52,8.16,20.13,10.33,30.46,1.63,6.79,3.26,14.14,5.71,20.66l0.27,0.27c1.36,4.08,3.26,8.7,7.07,10.61a9.68,9.68,0,0,0,7.34.82c5.17-1.9,9.79-7.62,13.05-10.88l1.36-1.08a95.72,95.72,0,0,0,10.61-12.51,27.92,27.92,0,0,1,2.18-3l1.63-2.18c1.9-2.45,4.35-5.44,6-7.88a35.33,35.33,0,0,1,2.72-4.08c1.36-1.9,2.72-3.81,3.81-5.71l0.54-1.09c1.9-3,3.54-5.44,5.44-6.52,2.18-1.36,4.35-1.36,7.07.81A6.13,6.13,0,0,1,232.47,407.4Z" style="fill:#b49759"/><path d="M348.28,407.4c-0.27,4.08-3.26,8.7-5.44,12.24a18.31,18.31,0,0,0-1.63,2.45c-1.9,3.53-4.35,6.53-6.53,9.79-0.54.82-1.36,1.63-1.9,2.45-5.17,7.35-9,12.78-15.5,18.22-14.41,12-29.91,18.49-48.94,18.49h-1.09c-23.11-.27-40.51-14.14-45.41-36.43a43.27,43.27,0,0,1-1.36-5.71c0-1.09-.27-1.9-0.27-2.72-2.72-22,5.44-47.58,20.67-67.43,6-7.34,10.06-10.88,20.39-16.59,4.08-2.18,12.51-4.89,16.59-4.89h4.35c23.11,0,31.81,12.5,34.53,17.67,7.34,14.68,3.53,35.89-8.7,47a43.51,43.51,0,0,1-11.69,7.61,62.4,62.4,0,0,1-11.42,4.35l-1.09.27A145,145,0,0,1,254.47,418h-0.54c-3.26,0-6.53,0-10.06-.27a8.36,8.36,0,0,1-2.45-.27h-3.53c-1.9,0-1.9.82-2.18,2.72,0,9.24,2.44,16.86,7.61,22.84,5.17,6.25,12.51,10.06,21.48,11.42a52.64,52.64,0,0,0,6.53.55c9,0,18.22-1.9,25.56-6.8,9.52-6,14.14-9.79,19.58-17.12a21,21,0,0,0,2.18-3,11.77,11.77,0,0,0,1.63-1.9c2.18-2.72,4.35-5.71,6-7.88,0.82-1.36,1.9-2.72,2.72-4.35,1.36-1.9,2.72-3.81,3.81-5.44l0.54-1.09c1.91-3,3.54-5.44,5.44-6.79,2.18-1.36,4.35-1.09,7.07,1.08C347.74,402.78,348.55,405,348.28,407.4Zm-98.43-34.8c-4.89,7.35-9,17.68-10.06,25.83a2.3,2.3,0,0,0,.54,1.9,8.85,8.85,0,0,0,1.9,1.08c4.08,0.27,7.89.82,12.24,0.82h0.82c7.88,0,16-1.36,21.48-2.18,9-1.63,16.31-4.9,21.75-10.88a19.88,19.88,0,0,0,6-10.88,24.8,24.8,0,0,0-5.17-21.48,18.48,18.48,0,0,0-12-5.71,26.25,26.25,0,0,0-4.62-.27c-7.88,0-14.68,2.72-21.75,8.16-4.62,3.81-8.16,9-11.15,13.32v0.27Z" style="fill:#b49759"/><path d="M422.5,447.65a57.11,57.11,0,0,1-9-1.09s-3.81,6.25-6.53,10.06a43.3,43.3,0,0,1-14.41,12.78c-10.87,6.25-22.29,7.61-34.53,4.08-8.43-2.45-14.41-8.16-17.95-16.59-5.16-12-5.71-24.47-6-38.06-0.27-24.47,5.17-48.13,10.06-65.8,3-10.88,7.07-20.94,10.61-29.64l1.63-4.08a159.27,159.27,0,0,1,11.69-24.47c5.17-9.51,14.68-17.67,24.74-17.67a14.32,14.32,0,0,1,3.54.27c4.89,1.36,8.43,4.08,10.33,8.43,6.53,12.5-.54,26.91-5.71,40.78L400.47,328c-2.72,7.07-7.34,14.41-11.15,21.48l-1.9,3.53c-4.89,8.7-29.36,43-38.34,54.1-0.55,10.33.81,21.76,2.18,31.27,1.09,9,5.17,20.12,16.86,21.48h2.18a31.85,31.85,0,0,0,15-3.54c5.17-3,9.79-8.43,13.05-13.32-2.45-1.09-7.34-5.44-8.7-6.8-10.87-13.32-9.52-34.8-6-50,1.63-7.35,5.17-16.86,11.42-23.39,4.62-4.9,10.6-8.16,17.4-8.16a10.16,10.16,0,0,1,2.72.27,14.59,14.59,0,0,1,5.44,1.36c13.32,5.17,13.05,24.47,9.52,42.15-2.18,12.24-6.25,23.92-10.06,33.44,7.07,1.36,13.05-.81,18.22-5.16,6-4.9,10.33-12,14.41-19,2.17-3.26,3.53-5.71,5.44-6.8,2.18-1.36,4.35-1.08,7.07.82a6.13,6.13,0,0,1,2.72,6c-1.09,7.61-13.05,24.47-18.22,29.64C442.07,444.92,433.1,447.91,422.5,447.65Zm-70.42-66.89a114,114,0,0,1,7.07-10.33,23.24,23.24,0,0,1,2.72-3.81c4.62-7.07,11.42-18.22,14.68-24.2,9.79-16.86,12-22,16-35.35l0.27-1.08c5.17-17.68-4.89-15.78-11.42-3.27l-1.36,3c-3.26,5.44-5.71,11.42-8.16,17.13l-1.9,4.62c-3.53,8.43-6.52,15.78-9.24,24.2C358.6,359.28,354,371.51,352.08,380.75Zm65.8-3.53c-0.27-4.08-2.45-8.16-6-8.16a8.14,8.14,0,0,0-4.08,1.36c-3.81,2.45-6.52,6.53-8.43,11.42-2.18,5.16-4.62,17.4-4.08,28,0.54,9.25,3.26,17.41,10.33,19.31,4.62-8.16,6.25-15,8.16-23.39a154.46,154.46,0,0,0,3.81-20.67A39,39,0,0,0,417.88,377.22Z" style="fill:#b49759"/><path d="M585.08,407.4c-0.27,4.08-3.26,8.7-5.44,12.24a18.31,18.31,0,0,0-1.63,2.45c-1.9,3.53-4.35,6.53-6.53,9.79-0.54.82-1.36,1.63-1.9,2.45-5.17,7.35-9,12.78-15.5,18.22-14.41,12-29.91,18.49-48.94,18.49h-1.09c-23.11-.27-40.51-14.14-45.41-36.43a43.27,43.27,0,0,1-1.36-5.71c0-1.09-.27-1.9-0.27-2.72-2.72-22,5.44-47.58,20.67-67.43,6-7.34,10.06-10.88,20.39-16.59,4.08-2.18,12.51-4.89,16.59-4.89H519c23.11,0,31.81,12.5,34.53,17.67,7.34,14.68,3.53,35.89-8.7,47a43.51,43.51,0,0,1-11.69,7.61,62.4,62.4,0,0,1-11.42,4.35l-1.09.27A145,145,0,0,1,491.27,418h-0.54c-3.26,0-6.53,0-10.06-.27a8.36,8.36,0,0,1-2.45-.27h-3.53c-1.9,0-1.9.82-2.18,2.72,0,9.24,2.44,16.86,7.61,22.84,5.17,6.25,12.51,10.06,21.48,11.42a52.64,52.64,0,0,0,6.53.55c9,0,18.22-1.9,25.56-6.8,9.52-6,14.14-9.79,19.58-17.12a21,21,0,0,0,2.18-3,11.77,11.77,0,0,0,1.63-1.9c2.18-2.72,4.35-5.71,6-7.88,0.82-1.36,1.9-2.72,2.72-4.35,1.36-1.9,2.72-3.81,3.81-5.44l0.54-1.09c1.91-3,3.54-5.44,5.44-6.79,2.18-1.36,4.35-1.09,7.07,1.08C584.54,402.78,585.35,405,585.08,407.4Zm-98.43-34.8c-4.89,7.35-9,17.68-10.06,25.83a2.3,2.3,0,0,0,.54,1.9,8.85,8.85,0,0,0,1.9,1.08c4.08,0.27,7.89.82,12.24,0.82h0.82c7.88,0,16-1.36,21.48-2.18,9-1.63,16.31-4.9,21.75-10.88a19.88,19.88,0,0,0,6-10.88,24.8,24.8,0,0,0-5.17-21.48,18.48,18.48,0,0,0-12-5.71,26.25,26.25,0,0,0-4.62-.27c-7.88,0-14.68,2.72-21.75,8.16-4.62,3.81-8.16,9-11.15,13.32v0.27Z" style="fill:#b49759"/><path d="M641.9,407.67c-0.54,4.08-3.54,8.7-5.71,12a10.17,10.17,0,0,0-1.63,2.72,73.87,73.87,0,0,1-6.52,9.51c-0.55.82-1.09,1.63-1.91,2.72-10.87,15.23-33.72,45.41-56,33.71-10.06-5.16-12.51-17.67-10.61-27.73,0.82-5.44,3-12,4.9-17.4,10.6-31.27,22.84-61.72,34.8-92.17,4.08-10.61,8.16-21.21,12.5-31.82,1.36-4.08,2.18-4.35,6.53-4.08a11.11,11.11,0,0,1,3,.27,36.14,36.14,0,0,1,5.44,0c2.44,0.55,2.44.82,1.9,3-7.34,19-14.41,38.07-21.48,57.11-10.06,26.1-19,52.47-28.82,78.57-1.63,5.17-5.17,17.94,2.72,19.58,3.81,0.81,8.43-1.09,12.78-4.62,6.25-5.17,11.15-11.15,16.31-17.94a19.26,19.26,0,0,1,2.18-2.72l1.63-2.18c1.91-2.45,4.08-5.44,5.71-7.88,0.81-1.36,1.9-2.72,2.72-4.08,1.36-1.9,2.72-3.81,3.81-5.71l0.55-.82c2.18-3.26,3.53-5.71,5.44-6.8,2.17-1.36,4.35-1.08,7.07.82A6.12,6.12,0,0,1,641.9,407.67Z" style="fill:#b49759"/><path d="M697.36,407.67c-0.54,4.08-3.54,8.7-5.71,12a10.17,10.17,0,0,0-1.63,2.72,73.87,73.87,0,0,1-6.52,9.51c-0.55.82-1.09,1.63-1.91,2.72-10.87,15.23-33.72,45.41-56,33.71-10.06-5.16-12.51-17.67-10.61-27.73,0.82-5.44,3-12,4.9-17.4,10.6-31.27,22.84-61.72,34.8-92.17,4.08-10.61,8.16-21.21,12.5-31.82,1.36-4.08,2.18-4.35,6.53-4.08a11.11,11.11,0,0,1,3,.27,36.14,36.14,0,0,1,5.44,0c2.44,0.55,2.44.82,1.9,3-7.34,19-14.41,38.07-21.48,57.11-10.06,26.1-19,52.47-28.82,78.57-1.63,5.17-5.17,17.94,2.72,19.58,3.81,0.81,8.43-1.09,12.78-4.62,6.25-5.17,11.15-11.15,16.31-17.94a19.26,19.26,0,0,1,2.18-2.72l1.63-2.18c1.9-2.45,4.08-5.44,5.71-7.88,0.81-1.36,1.9-2.72,2.72-4.08,1.36-1.9,2.72-3.81,3.81-5.71l0.55-.82c2.18-3.26,3.53-5.71,5.44-6.8,2.17-1.36,4.35-1.08,7.07.82A6.12,6.12,0,0,1,697.36,407.67Z" style="fill:#b49759"/><path d="M751.47,419.36a10.17,10.17,0,0,0-1.63,2.72A220,220,0,0,1,733,446.83c-6,8.16-14.41,16.59-24.47,20.12-9.24,3.27-19.58,3.81-27.46-5.16s-6.52-23.66-3.26-34.53c4.08-13.87,9-27.46,14.41-41.88l2.17-5.16c4.08-10.61,9.24-23.11,14.14-33.72l0.81-1.63a14.48,14.48,0,0,1,1.63-3.81c0.27-.55,1.09-1.09,3.81-1.09a41.73,41.73,0,0,1,5.16.55,10.19,10.19,0,0,0,2.72.27,13.3,13.3,0,0,1,3,.27c0.81,0.27,1.36.54,1.36,0.81a2.25,2.25,0,0,1,0,1.9c-1.91,4.9-5.44,13.05-7.07,16.59-3.53,7.88-17.13,42.41-20.39,52.21a20.12,20.12,0,0,1-1.09,3v0.27c-1.08,3.27-2.17,6.53-3.26,9.51-2.45,7.89-7.61,25.56,4.89,27.19,7.61,1.09,13.05-6.79,17.94-12A150.73,150.73,0,0,0,734.61,418c1.09-1.36,1.9-2.72,3-4.08,1.36-1.9,2.45-3.81,3.81-5.71l0.55-.82c1.9-3.26,3.53-5.71,5.44-6.79,1.9-1.36,4.08-1.09,7.07.81,1.9,1.36,2.72,3.27,2.44,6C756.63,411.48,753.64,416.1,751.47,419.36ZM741.13,312.51a12.6,12.6,0,1,1-25,3A12.6,12.6,0,1,1,741.13,312.51Z" style="fill:#b49759"/><path d="M831.12,447.65a35.17,35.17,0,0,1-10.6-2.18,65.15,65.15,0,0,1-6.25,8.16c-7.34,8.16-17.13,15.22-28.28,16.59-14.41,1.36-28-1.91-37-13.6-7.34-9.24-8.43-22.84-7.61-34.53,1.63-18.76,8.43-40,18.49-55.47A69.37,69.37,0,0,1,771,352.75c9.52-8.43,18.49-13.59,32.09-14.41a36.67,36.67,0,0,1,9.51,1.08c15.77,3.27,22.57,15.23,24.74,29.37,2.18,13.87,0,29.64-2.18,41.33l-1.63,6.8a110.27,110.27,0,0,1-5.44,14.95,21.87,21.87,0,0,0,18.76-5.16c6-4.9,10.87-12.51,14.68-19,2.17-3.26,3.53-5.71,5.44-6.8,2.18-1.36,4.35-1.08,7.07.82a6.13,6.13,0,0,1,2.72,6c-1.09,8.43-13.32,24.47-18.49,29.64C850.7,444.92,841.73,447.91,831.12,447.65Zm-25.83-11.7c-12.24-12-15-28.82-13.6-44.86,1.36-11.69,4.62-20.94,9.51-31.54,1.63-3.27,3-5.72-.54-5.72-10.06.27-19,9-23.93,15.78-11.69,15.77-25.56,51.39-18.49,72.32l1.63,3.81c6,9.51,19,13.59,29.36,8.7,6.8-3.26,12.51-7.34,16.86-13.59C807.74,438.67,807.2,437.85,805.29,435.95Zm9.51-12.51c4.62-7.61,8.43-26.37,8.43-34.8,0-10.06.81-16.31-3.54-26.37-0.54-1.36-1.9-1.36-2.72,0a69.25,69.25,0,0,0-10.33,39.43C806.92,407.4,809.1,420.45,814.81,423.44Z" style="fill:#b49759"/><path d="M1000,407.67c-0.55,4.08-3.54,8.7-5.71,12a10.24,10.24,0,0,0-1.63,2.72,73.53,73.53,0,0,1-6.53,9.51c-0.54.82-1.09,1.63-1.9,2.72-6.8,9.51-17.13,21.75-25,28.82-4.62,4.08-11.69,7.88-19.58,7.88-7.89.27-16.31-3.81-17.67-13.05-1.63-10.06,1.36-19.57,4.62-28.82,5.71-17.12,11.69-31.54,17.4-48.4,4.62-13.87,4.35-30.18-17.4-27.46-9.51,1.36-17.4,7.88-23.65,14.68-4.08,4.62-8.16,11.42-11.42,16.59-3,4.62-6.53,13.87-9,19-2.17,5.44-6.52,16-11.69,30.18-4.62,12.78-7.61,20.94-9.79,26.1-0.27,1.09-2.44,5.72-4.08,7.35-1.36,1.63-2.72,1.08-4.89,1.08a24.56,24.56,0,0,1-6.25-.27c-0.81-.27-1.63,0-2.72-0.54-1.63-.82-1.9-1.9-1.09-3.81,7.34-21.76,15.77-43.51,24.47-65.8,3.81-9.52,15.5-44.05,19.85-54.66,1.09-2.44,2.18-5.16,3.26-7.61,0.27-1.08,1.08-1.63,2.44-1.9a14.72,14.72,0,0,1,10.06,2.45c1.63,1.08,1.9.27,2.45,2.45,0.54,1.9.54-.55-2.45,11.42,0.55-2.45,6-6.25,8.7-7.61A40.54,40.54,0,0,1,938.24,337c19.85,3,29.36,17.67,24.47,36.16A350.32,350.32,0,0,1,951,409.3c-3,7.88-6,16-9,23.93a63.66,63.66,0,0,0-3.53,10.87c-0.81,4.08-1.63,8.43,2.44,10.61,2.72,1.36,9-2.72,14.41-8.7,5.17-6,10.88-12.24,12.78-14.95a18.75,18.75,0,0,1,2.18-2.72l1.63-2.18c1.9-2.45,4.08-5.44,5.71-7.88,0.81-1.36,1.9-2.72,2.72-4.08,1.36-1.9,2.72-3.81,3.81-5.71l0.55-.82c2.17-3.26,3.81-5.71,5.44-6.8,2.18-1.36,4.35-1.08,7.07.82A6.12,6.12,0,0,1,1000,407.67Z" style="fill:#b49759"/></svg>