<svg id="Layer_1" data-name="Layer 1" xmlns="http://www.w3.org/2000/svg" viewBox="0 0 182.58 61.13"><defs><style>.cls-1{fill:#e7e5d4;}</style></defs><title>Artboard 2</title><path class="cls-1" d="M39.93,42.12c-.21.36-.36.72-.57,1.08a.41.41,0,0,0,0,.09c.07-.11.16-.23.27-.38a15,15,0,0,0,1-1.85C40.39,41.42,40.16,41.78,39.93,42.12Zm-1.22,2.16c-.07.11-.13.23-.2.35.23-.33.45-.66.64-1v-.07Zm-4-2.81a.3.3,0,0,1,0,.1l.1-.17Zm-.36.58v0c.07-.11.15-.22.21-.33C34.46,41.85,34.39,41.94,34.32,42.05Z"/><path class="cls-1" d="M181.7,37.51a2.22,2.22,0,0,0-2.45-.21.07.07,0,0,1-.07.07,16.25,16.25,0,0,0-1.44,1.87l-.22.29c-.07.14-.14.21-.21.36a11.91,11.91,0,0,0-.72,1.08c-.29.36-.51.79-.79,1.15-.44.65-1,1.37-1.44,2a1.62,1.62,0,0,0-.51.57l-.21.22a2.25,2.25,0,0,0-.36.57c-.22.29-.51.58-.72.87-.65.86-1.37,1.66-2,2.38l-.36.36c-.14.07-.22.21-.36.28,1.22-4,1.15-8.35,1.08-12.17v-.36c-.07-2.8-.22-5.18-.36-7.63-.14-1.44-.22-2.95-.29-4.61a7.51,7.51,0,0,0-.79-2.81.07.07,0,0,0-.07-.07,2.27,2.27,0,0,0-1.73-1.08h-.58c-.14,0-.36-.07-.5-.07s-.43-.07-.65-.07a2.13,2.13,0,0,0-1-.22.48.48,0,0,0-.28.08,2.17,2.17,0,0,0-1.66.93.65.65,0,0,1-.29.36c-.14.29-.36.58-.5.94-1.66,2.59-3.1,5.33-4.54,8L157,32c-1.15,2.09-2.09,3.74-3.24,5.76-.65,1.08-1.29,2.23-2,3.6l-.24.36c0,.06-.09.13-.14.2l-.2.29s0,0,0,0a8.86,8.86,0,0,1-.74,1,.44.44,0,0,1-.08.11l-.61.78-.43.57c-.21.22-.36.51-.57.72a29.89,29.89,0,0,1-4.25,4.68,7.42,7.42,0,0,1-1.87,1.16,2,2,0,0,1-.87.21c-1.08,0-1.73-1.22-1.73-2.37v-.87a12.33,12.33,0,0,1,.65-3.67c.29-1.08.72-2.16,1.08-3.24s.72-2.09,1.08-3.17a32.78,32.78,0,0,1,2-5.26c.93-2.08,1.87-4.17,2.73-6.26a1.24,1.24,0,0,0-.43-1.66,2.92,2.92,0,0,0-2.45-.79,1.57,1.57,0,0,0-1.29.79h-.08a2.92,2.92,0,0,1-.43.8c-.14.21-.21.35-.36.57-.07-.22-.07-.43-.14-.57V25.7A7,7,0,0,0,137.64,21a11.75,11.75,0,0,0-8.28.07c-4.83,1.73-8.07,5.62-10.08,8.5a29.91,29.91,0,0,0-4.45,8.89h0l-.51.75-.14.29c-.29.43-.58.93-.94,1.44s-.58.79-.79,1.15c-.36.65-1,1.37-1.52,2.09l-.43.5c-.21.29-.36.51-.57.79l-.43.58c-1.3,1.73-3.17,4.18-5,5-.72.29-1.23.36-1.59-.07a3.28,3.28,0,0,1-.36-2.38,21.75,21.75,0,0,1,1.66-5.18c.36-.94.72-1.87,1-2.81a12.26,12.26,0,0,0,.36-7.78,10.92,10.92,0,0,0-3.6-5.18c-.15-.07-.29-.22-.51-.36-.79-.58-1.94-1.51-2.09-2.16-.07-.15,0-.29.08-.5A8.76,8.76,0,0,0,99,16.85,4.65,4.65,0,0,0,93.57,15a5.49,5.49,0,0,0-3.67,2.45,6.05,6.05,0,0,0-.43,4.83,10.1,10.1,0,0,0,3.24,5q.21.11.21.21l-.07.22c-.36,1-.79,1.8-1.08,2.52l-.07.14a93.75,93.75,0,0,1-6.19,10.88,5.52,5.52,0,0,1-.51.79l-1,1.5,0,.05a3.49,3.49,0,0,0-.43.61c-.15.14-.22.29-.36.43h-.08a.9.9,0,0,1-.21.29,1.46,1.46,0,0,0-.36.57A24.4,24.4,0,0,1,78,50a6.55,6.55,0,0,1-3.31,1.44c-.72,0-1.08-.36-1.23-1.15a10.4,10.4,0,0,1,.58-3.82,1.7,1.7,0,0,1,.14-.57l.15-.44c.5-1.87,1.94-6,2.74-8.28a4.83,4.83,0,0,1,.43-.93v-.07c.57-1.3,1-2.67,1.51-4,.36-.94.79-1.95,1.15-3,.15-.28.22-.64.36-.93s.22-.65.29-.94a18.6,18.6,0,0,1,1-2.3c0-.08.07-.15.07-.22V24.7a2.94,2.94,0,0,0,.22-.44h.43l.36.07c1.37.08,2.66.08,3.31.08a1.25,1.25,0,0,0,.72-.15c.5-.21.72-.93,1.08-2.09,0-.07.07-.14.07-.21s.07-.15.07-.22.08-.07.08-.14a.29.29,0,0,1,.07-.22,1.09,1.09,0,0,0-.07-.93c-.15-.36-.44-.51-.94-.51h-.43a6.8,6.8,0,0,0-1.23-.07c-.21,0-.5-.07-.79-.07h-.07a3.29,3.29,0,0,0-.36-.07h-.58a.26.26,0,0,0,.08-.22.07.07,0,0,0,.07-.07v-.07c.21-.58.36-.94.5-1.37.07-.07.15-.15.15-.22a16.41,16.41,0,0,0,.64-1.8c.15-.43.36-.93.58-1.44a2.5,2.5,0,0,0,.29-.65l.21-.43.08-.07c0-.14.07-.22.07-.36l.21-.65a1.91,1.91,0,0,1,.15-.5.28.28,0,0,0,.07-.22,1.07,1.07,0,0,0,0-.93.77.77,0,0,0-.43-.51,11.78,11.78,0,0,0-2.67-.5h-.57c-.79,0-1.15.5-1.59,1.51-.57,1.37-1.08,2.74-1.65,4-.65,1.51-1.3,2.88-1.8,4.32a.23.23,0,0,0-.07.15c-.08,0-.15-.08-.29-.08H75.64a8.56,8.56,0,0,1-1.44-.07h-.14a1.41,1.41,0,0,0-1.15.58v.07c-.21.43-.48,1-.68,1.52,0,0,0,0,0,.06a.93.93,0,0,1-.28.94h0c0,.29-.14.71.15,1.07a1.35,1.35,0,0,0,1,.29h.22c.72,0,1.8,0,3,.07-.21.58-.35,1.15-.57,1.66-.29.79-.58,1.58-.87,2.3-.72,1.87-1.44,3.75-2.08,5.62C72,36,71.08,38.24,70.28,40.52L70,41V41a2,2,0,0,1-.36.5,1.55,1.55,0,0,1-.36.58l-.29.43c-.36.51-.79,1.08-1.22,1.66l-.43.5c-.08,0-.08,0-.08.08a1.91,1.91,0,0,1-.36.43.53.53,0,0,0-.14.28l-.58.65a19.82,19.82,0,0,1-3.81,4.32h-.07a.07.07,0,0,1-.08.07c-.07.08-.14.08-.21.22a3.88,3.88,0,0,0-.36.15,1.63,1.63,0,0,1-.36.21,2.81,2.81,0,0,1-1.66.5,1.68,1.68,0,0,1-1.22-.43,4.61,4.61,0,0,1-.87-2.81c-.07-1.72-.07-3-.07-4.1a18.82,18.82,0,0,1,.07-2V40.18a1.57,1.57,0,0,1,.44-1.08c.28-.29,3.31-3.39,4.1-4.4a14.5,14.5,0,0,1,1.3-1.58,6.93,6.93,0,0,1,.79-.86l.29-.36c1.22-1.59,2.66-3.32,4-4.76L72,22.76h0a4.49,4.49,0,0,1,.26-1c-.23-.58-1-.58-1.48-.58h-.29a.84.84,0,0,1-.43-.08h-.36L69.6,21H69c-.21,0-.36-.07-.5-.07a1.88,1.88,0,0,0-1.3.65c-.57.65-1.15,1.29-1.65,1.94s-1,1.08-1.52,1.59l-.64.65-.51.5v.07c-.36.43-.79.94-1.29,1.51a7.51,7.51,0,0,0-1,1.16c-.94,1.08-1.87,2.08-2.38,2.73V31c0-.5.07-1,.07-1.37v-.5c0-1.95.15-4-.57-5.76-.72-1.59-2.09-2.45-4.32-2.67a6.91,6.91,0,0,0-2.95.51.15.15,0,0,0-.15.14c-2.52.87-4.39,3.24-5.76,5l-.14.07c-.15.22-.29.44-.44.65a5,5,0,0,0-.5.72c-.65.87-1.15,1.59-1.66,2.38a6.09,6.09,0,0,1-.57.86c-1,1.59-2.23,3.6-2.74,4.39-1,1.73-2.16,3.75-3.6,5.84a1,1,0,0,1-.08.14l-.1.17a1.18,1.18,0,0,1-.11.19c-.06.11-.14.22-.21.33v0a12.19,12.19,0,0,1-.71,1c-.19.24-.38.47-.58.7l-.51.65a3.37,3.37,0,0,1-.5.5c-.15.22-.36.43-.51.65A28.66,28.66,0,0,1,24,53.28a16,16,0,0,1-8.49,2.59A12.89,12.89,0,0,1,9.7,54.51a6.52,6.52,0,0,1-3.61-3.75A12.53,12.53,0,0,1,7.82,40.18a10.69,10.69,0,0,1,7.85-5.12,5.55,5.55,0,0,1,1.44.22,16.07,16.07,0,0,0,1.8.22,1.91,1.91,0,0,0,2-1.37c.72-2.09.79-2.67-1.15-3.46l-.15-.07a8.93,8.93,0,0,1-4-2.31,10.65,10.65,0,0,1-2.3-4,19.52,19.52,0,0,1-.79-5.18,12.51,12.51,0,0,1,1.94-6.84c2.16-3.31,4.18-5,7-6.12a15.75,15.75,0,0,1,5.19-.94,10.42,10.42,0,0,1,3.17.51A9.47,9.47,0,0,0,28,8.35l-.21.5a9.22,9.22,0,0,0,.94,8.43,5.85,5.85,0,0,0,5,2.52h.36c4.17,0,6-3.75,6.4-7a11,11,0,0,0-1.72-7.12.24.24,0,0,1-.08-.15.07.07,0,0,1,.08-.07,13.16,13.16,0,0,1,2.59-.94,4.11,4.11,0,0,0,.86-.28,1.06,1.06,0,0,0,.51-.58A.81.81,0,0,0,42.67,3c-.07-.07-.07-.07-.07-.15A5.08,5.08,0,0,0,42,1.87,2.56,2.56,0,0,0,39.87.93a3.47,3.47,0,0,0-1.08.15,10.78,10.78,0,0,0-1.44.43l-.44.14-1.08.43a3.44,3.44,0,0,0-.36.08H35.4a6,6,0,0,0-1.94-1L33,.93A13.37,13.37,0,0,0,27.41,0H26a17.19,17.19,0,0,0-9.22,2.37A19.89,19.89,0,0,0,9,10.87,19.11,19.11,0,0,0,7,18.14c-.14,4.32.86,8.14,3.53,12.82a.07.07,0,0,1,.07.07l.07.07-.07.08-.21.07a5.5,5.5,0,0,0-1.37.65,20.81,20.81,0,0,0-3.17,2.59,16.87,16.87,0,0,0-5.83,11,15.59,15.59,0,0,0,.57,5.91A12.21,12.21,0,0,0,7.1,59.26a18.71,18.71,0,0,0,8.28,1.87,21.16,21.16,0,0,0,8.07-1.58c5.47-2.31,8.78-6.56,12.24-11.09l.07-.08c.36-.5.79-1,1.15-1.51,0-.07.08-.14.15-.21a5.12,5.12,0,0,1,.36-.51l.14-.21.34-.47c.2-.27.4-.53.59-.8,0,0,0,0,0,0s.13-.24.2-.35l.44-.72c.05-.09.1-.18.16-.27a.41.41,0,0,1,0-.09c.21-.36.36-.72.57-1.08s.46-.7.69-1.06c.67-1,1.36-2.13,2.05-3.19,1-1.73,2.16-3.53,3.24-5,.29-.5.65-.93.94-1.44a18.59,18.59,0,0,1,4.32-5,3,3,0,0,1,1.29-.43c.65,0,.79.65.79,1.15a38.82,38.82,0,0,1-.21,7.2V35a1.65,1.65,0,0,0-.07.58,14.66,14.66,0,0,1-.36,2.23v.07s-.15.15-.15.22l-.14.14c-.15.07-.22.22-.29.29l-.5.5c0,.08,0,.08-.07.08a7,7,0,0,1-1.08,1.29v.07a17,17,0,0,1-1.59,1.66A21.11,21.11,0,0,0,47.13,44c-.57.65-1.22,1.3-1.94,2.09l-1,1c-.86,1-1.8,1.94-2.59,2.74v.07c-.94.93-1.66,1.8-2.38,2.52l-1,1a.61.61,0,0,1-.29.28,6.08,6.08,0,0,0-.58.65h-.07c-.22.22-.65.65-.43,1.15v.08c.21.43.86.43,1.08.43h.65a11.94,11.94,0,0,1,1.58.07,11.05,11.05,0,0,0,1.58.14,1.13,1.13,0,0,0,.94-.36l.07-.07c.15-.14.22-.14.29-.21l1.37-1.37a18.45,18.45,0,0,1,2.16-2.09c0-.07,0-.07.07-.07A12.94,12.94,0,0,1,47.57,51c.43-.44.86-.94,1.29-1.44.22-.29.51-.58.72-.87a9,9,0,0,0,.8-.86,22.83,22.83,0,0,0,1.72-1.94c0,.5.07,1,.07,1.51.29,3.81,1.08,8.21,5.19,9.14a6.23,6.23,0,0,0,1.66.15,6.68,6.68,0,0,0,1.72-.15,12.17,12.17,0,0,0,1.88-.5.24.24,0,0,1,.14-.07,2.48,2.48,0,0,1,.86-.44s.08,0,.08-.07A14.33,14.33,0,0,0,66,53.86a25.35,25.35,0,0,0,1.89-2c0,.15,0,.3,0,.46.36,2.88,2.59,4.54,5.9,4.54a9.31,9.31,0,0,0,2.81-.36,13.84,13.84,0,0,0,4.18-2.23l.14-.07a16.21,16.21,0,0,0,2.88-2.6.21.21,0,0,0,.08-.14,44.93,44.93,0,0,0,3.74-4.54,4,4,0,0,1,.43-.57l.07-.08c.15-.21.22-.35.36-.57l.51-.76.09-.13c.1-.17.21-.33.32-.51h0A10.48,10.48,0,0,1,90.19,43l.29-.5c.34-.55.66-1.09,1-1.62,0,0,0,0,0,0,1.13-1.94,2.07-3.72,3-5.41.57-1.08,1.22-2.23,1.87-3.45l.65-1.3c.07-.07.14-.14.14-.21s.07-.08.07-.15l.07-.14.22.21a1.71,1.71,0,0,0,.43.36c2.81,2.31,3.82,4.4,3.17,6.56-.65,1.87-1.08,3.38-1.66,5-.07.29-.21.65-.28.94-1.08,3.1-2.31,6.63-1.23,9.87a4.68,4.68,0,0,0,4.75,3.24h.08c4,0,6-1.73,7.92-3.82a36.94,36.94,0,0,0,3.4-4.27,9.69,9.69,0,0,0,9.77,8.59s1.73-.14,2.59-.29a19.55,19.55,0,0,0,7.92-4.17,4,4,0,0,0,.58-.58l.14-.07c0,.14.08.21.08.29a6.51,6.51,0,0,0,7.34,4.53,8.71,8.71,0,0,0,3.1-1.08,13,13,0,0,0,3.24-2.66l.43-.43a44.22,44.22,0,0,0,4.54-5.48,3.65,3.65,0,0,0,.5-.65c.19-.25.37-.5.55-.76.43-.6.82-1.21,1.18-1.83a5,5,0,0,0,.32-.51l.11-.21.25-.37c0-.06.07-.12.11-.17.2-.36.41-.72.62-1.07a.13.13,0,0,1,0-.07c.94-1.64,1.86-3.19,2.65-4.65,1.51-3,3.31-6.41,5.33-9.87a4.26,4.26,0,0,1,.07.94c0,1.73.14,3,.22,4.32.07,1.87.21,3.45.21,5.76a50.41,50.41,0,0,1-.5,8.49,9.17,9.17,0,0,1-2.09,4.83,2.2,2.2,0,0,1-1.66.72,2.91,2.91,0,0,1-2.44-1.58,1.79,1.79,0,0,0-2.31-.73,17.75,17.75,0,0,0-1.51.94,1.31,1.31,0,0,0-.65,1.87,5.19,5.19,0,0,0,.79,1.37A7.72,7.72,0,0,0,158.51,56a10.7,10.7,0,0,0,5.26,1.37,11.94,11.94,0,0,0,3.17-.44c2.38-.57,3.82-1.87,5.54-3.38a39.46,39.46,0,0,0,5.91-6.7c.14-.14.21-.36.43-.57l.07-.08a2.48,2.48,0,0,1,.36-.5,20.35,20.35,0,0,0,1.23-2,4,4,0,0,0,.36-.51c0-.07.07-.14.14-.22l.07-.14a10,10,0,0,0,1.51-3.24A2.26,2.26,0,0,0,181.7,37.51ZM33.24,9.57l.07-.07c.29-.29.58-.72.87-.72h.07c1.22.36,1.58,2.09,1.37,3.6-.15,1.23-.87,2.59-1.87,2.59a1.63,1.63,0,0,1-.65-.21H33a1.91,1.91,0,0,1-.87-1.23A5.24,5.24,0,0,1,33.24,9.57ZM95.08,22.82A4,4,0,0,1,93.86,21,1.29,1.29,0,0,1,94,19.73a1,1,0,0,1,.87-.44c.5,0,.57.51.57.8v.21A4.6,4.6,0,0,1,95.08,22.82ZM137.21,39a29.74,29.74,0,0,1-3.46,6.56A16.27,16.27,0,0,1,127,51a7.91,7.91,0,0,1-3.1.57,4.45,4.45,0,0,1-3.45-1.36,7.63,7.63,0,0,1-1.66-5.4c.43-6.34,4-13.47,8.86-17.29a10,10,0,0,1,5-2.23,3.82,3.82,0,0,1,.86-.07,4.32,4.32,0,0,1,4.32,3.09,14.09,14.09,0,0,1,.79,5.12A16.61,16.61,0,0,1,137.21,39Z"/><path class="cls-1" d="M72.26,21.81s0,0,0-.06a4.49,4.49,0,0,0-.26,1h0A.93.93,0,0,0,72.26,21.81ZM37.9,45.47a3.6,3.6,0,0,0,.59-.8C38.3,44.94,38.1,45.2,37.9,45.47ZM34,42.62c-.13.18-.24.36-.35.53a12.19,12.19,0,0,0,.71-1v0Z"/><path class="cls-1" d="M72.26,21.81s0,0,0-.06a4.49,4.49,0,0,0-.26,1h0A.93.93,0,0,0,72.26,21.81ZM90.48,42.48l-.29.5a10.48,10.48,0,0,0-.73,1.26l.37-.61a3,3,0,0,0,.43-.72l.15-.14a18,18,0,0,0,1-1.91C91.14,41.39,90.82,41.93,90.48,42.48Z"/><path class="cls-1" d="M89.13,44.76c.09-.13.18-.26.27-.41l0-.1C89.34,44.43,89.23,44.59,89.13,44.76Z"/><path class="cls-1" d="M156.79,42.37a11.09,11.09,0,0,0,.62-1.07C157.2,41.65,157,42,156.79,42.37Zm-5.62-.19.2-.29-.12.16Z"/><path class="cls-1" d="M156.43,42.91l-.11.21c.09-.14.19-.31.32-.5a.3.3,0,0,0,0-.08Zm-.8,1.37a7.06,7.06,0,0,0,.37-.65c-.36.62-.75,1.23-1.18,1.83A5.89,5.89,0,0,0,155.63,44.28Zm-5.21-1a8.86,8.86,0,0,0,.74-1c-.18.26-.37.53-.57.78C150.54,43.07,150.48,43.16,150.42,43.25Z"/></svg>