<svg id="Layer_1" data-name="Layer 1" xmlns="http://www.w3.org/2000/svg" viewBox="0 0 195.46 63.65"><defs><style>.cls-1{fill:#e7e5d4;}</style></defs><title>Artboard 1</title><path class="cls-1" d="M40.94,12.38a19.19,19.19,0,0,1-.57,2.89c-1.73,6.62-7.06,11.44-14.12,13.1h-.07a1.34,1.34,0,0,1,.14.5,1.41,1.41,0,0,1,.22.58A59.13,59.13,0,0,1,30,38l.14.65a22.62,22.62,0,0,1,1.37,5.83,18.57,18.57,0,0,1-3.38,12.31A15.73,15.73,0,0,1,15,63.65a17.34,17.34,0,0,1-7.56-1.72A13.48,13.48,0,0,1,0,48.75a12.5,12.5,0,0,1,1.51-5,8.74,8.74,0,0,1,7.21-4.46,5.78,5.78,0,0,1,3,.79,2.57,2.57,0,0,1,1.15,1c.86,1.29-.86,2.66-1.66,3.24-.07.07-.28.21-.93.21a1.85,1.85,0,0,1-.58-.07c-.07,0-.07,0-.14-.07a2,2,0,0,0-.94-.29A3.61,3.61,0,0,0,6,45.87,10,10,0,0,0,5.08,49a12,12,0,0,0,0,2.24c.43,3.16,3.39,6.69,8.86,7.27.5,0,1,.07,1.44.07,7.2,0,10.66-6.12,10.94-12.1a20.85,20.85,0,0,0-.79-6.12c-1.08-3.53-3-6.91-4.39-10.29V30c-.07-.14-.22-.36-.36-.64a.79.79,0,0,1-.29-.36.39.39,0,0,0-.29-.08,24.64,24.64,0,0,1-7.12-1.22A16.61,16.61,0,0,1,7.82,24.7C3.21,21,1.41,13.32,3.86,7.85A9.17,9.17,0,0,1,5.73,5,3.25,3.25,0,0,1,8.25,4c.15,0,.29.07.51.07a5.57,5.57,0,0,1,1.15.08.75.75,0,0,1,.72.43c.07.29-.15.57-.22.72s-.21.29-.29.43a5.62,5.62,0,0,0-.64.94l-.08.07a11.87,11.87,0,0,0-1.94,4.9,10.6,10.6,0,0,0,7.92,11.66,4.72,4.72,0,0,0,.5.14,11.57,11.57,0,0,0,2.31.51c-.36-.87-1.15-2.81-1.44-3.82a19.23,19.23,0,0,1-.07-10.87,13.1,13.1,0,0,1,5.76-7.35A13.94,13.94,0,0,1,33.74.65C39,2.23,41.3,7.78,40.94,12.38ZM35.83,9.72c-.36-3.46-3.89-5-6.34-5a1,1,0,0,0-.43.07,8.34,8.34,0,0,0-4.75,1.73,9.59,9.59,0,0,0-3.39,7.63,19.3,19.3,0,0,0,.94,5.55C23.16,24,23.88,24,24,24a13,13,0,0,0,3.74-.87C33.53,20.81,36.55,15.91,35.83,9.72Z"/><path class="cls-1" d="M78.89,41a8.66,8.66,0,0,1-1.59,3.39,6.52,6.52,0,0,1-.43.72,25.94,25.94,0,0,1-1.73,2.59,4,4,0,0,1-.5.65,43.23,43.23,0,0,1-4.54,5.47l-.43.43A13.06,13.06,0,0,1,66.43,57,9.12,9.12,0,0,1,63.33,58,6.52,6.52,0,0,1,56,53.5c0-.07-.07-.14-.07-.29l-.15.07a4.42,4.42,0,0,1-.57.58A19.84,19.84,0,0,1,47.28,58c-.87.14-2.6.28-2.6.28-5.25,0-9.21-3.67-9.86-9.14A24.36,24.36,0,0,1,35.39,41a30,30,0,0,1,4.76-9.93c2-2.88,5.25-6.77,10.08-8.5a11.7,11.7,0,0,1,8.28-.07,6.93,6.93,0,0,1,4.68,4.68v.07c.07.14.07.36.14.58.15-.22.22-.36.36-.58a2.62,2.62,0,0,0,.43-.79h.08a1.55,1.55,0,0,1,1.29-.79,2.89,2.89,0,0,1,2.45.79,1.23,1.23,0,0,1,.43,1.65c-.86,2.09-1.8,4.18-2.73,6.27a32.78,32.78,0,0,0-2,5.26c-.36,1.08-.72,2.16-1.08,3.16s-.79,2.16-1.08,3.24a12.47,12.47,0,0,0-.65,3.68v.86c0,1.15.65,2.38,1.73,2.38a2,2,0,0,0,.87-.22,7.67,7.67,0,0,0,1.87-1.15A30.34,30.34,0,0,0,69.6,47c.21-.22.36-.51.57-.72l.44-.58a19.54,19.54,0,0,0,1.51-2.09c.28-.36.5-.72.79-1.08v-.07A15.39,15.39,0,0,0,73.85,41l.21-.21a6.62,6.62,0,0,1,1.51-1.95A2.28,2.28,0,0,1,78.89,41ZM53.47,26.79a9.87,9.87,0,0,0-5,2.23C43.67,32.83,40.07,40,39.64,46.3a7.61,7.61,0,0,0,1.66,5.4,4.42,4.42,0,0,0,3.45,1.37,7.92,7.92,0,0,0,3.1-.58,16.11,16.11,0,0,0,6.77-5.4,28.83,28.83,0,0,0,3.46-6.55,16.43,16.43,0,0,0,1.36-5.62,14,14,0,0,0-.79-5.11,4.32,4.32,0,0,0-4.32-3.1A3.44,3.44,0,0,0,53.47,26.79Z"/><path class="cls-1" d="M94.15,41a8.17,8.17,0,0,1-1.59,3.39,3.88,3.88,0,0,0-.36.65.07.07,0,0,1-.07.07c-.5.93-1.22,1.8-1.73,2.59l-.5.72c-1.94,2.66-7.06,9.86-12.53,9.86a7.54,7.54,0,0,1-3-.72c-2.81-1.51-3.53-5-3-7.92A32.87,32.87,0,0,1,72.62,45c2.52-7.34,5.33-14.61,8.13-21.6l1.16-2.95c1.08-2.81,2.23-5.62,3.31-8.5.36-.93.65-1.37,1.66-1.37h1.36c.51.08,1,0,1.52.08a1.24,1.24,0,0,1,.86.43,1.41,1.41,0,0,1,0,.93v.08c-2,5-3.89,10.22-5.76,15.19-1.44,3.89-3,7.92-4.32,11.81-1.08,2.95-2.31,6-3.31,9.07-.87,2.52-.65,3.67-.36,4.18a1,1,0,0,0,.72.43,3.68,3.68,0,0,0,3-1.15A25.19,25.19,0,0,0,84.86,47a8,8,0,0,1,.58-.72l.43-.58,1.51-2.09.36-.5.36-.58a17.27,17.27,0,0,0,1-1.51l.14-.21.29-.44a4.6,4.6,0,0,1,1.3-1.51A2.27,2.27,0,0,1,94.15,41Z"/><path class="cls-1" d="M133.17,41a8.5,8.5,0,0,1-1.58,3.39c-.15.29-.29.5-.43.72a27.79,27.79,0,0,1-1.73,2.59,4.14,4.14,0,0,1-.51.65,44,44,0,0,1-4.53,5.47l-.43.43A13.24,13.24,0,0,1,120.72,57a9.12,9.12,0,0,1-3.1,1.08,6.53,6.53,0,0,1-7.35-4.54c0-.07-.07-.14-.07-.29l-.14.07a4.53,4.53,0,0,1-.58.58A19.84,19.84,0,0,1,101.56,58c-.86.14-2.59.28-2.59.28-5.26,0-9.22-3.67-9.87-9.14A24.37,24.37,0,0,1,89.68,41a30.18,30.18,0,0,1,4.75-9.93c2-2.88,5.26-6.77,10.08-8.5a11.7,11.7,0,0,1,8.28-.07,6.89,6.89,0,0,1,4.68,4.68v.07a4,4,0,0,1,.15.58l.36-.58a2.86,2.86,0,0,0,.43-.79h.07a1.58,1.58,0,0,1,1.3-.79,2.89,2.89,0,0,1,2.45.79,1.24,1.24,0,0,1,.43,1.65c-.86,2.09-1.8,4.18-2.74,6.27A32.75,32.75,0,0,0,118,39.68c-.36,1.08-.72,2.16-1.08,3.16s-.79,2.16-1.08,3.24a12.47,12.47,0,0,0-.65,3.68v.86c0,1.15.65,2.38,1.73,2.38a2,2,0,0,0,.86-.22,7.32,7.32,0,0,0,1.87-1.15A29.36,29.36,0,0,0,123.88,47c.22-.22.36-.51.58-.72l.43-.58a18.24,18.24,0,0,0,1.51-2.09c.29-.36.51-.72.8-1.08v-.07a15.26,15.26,0,0,0,.93-1.44l.22-.21a6.46,6.46,0,0,1,1.51-1.95,2.09,2.09,0,0,1,2.45.22A2.07,2.07,0,0,1,133.17,41ZM107.75,26.79a9.88,9.88,0,0,0-5,2.23C98,32.83,94.36,40,93.93,46.3a7.56,7.56,0,0,0,1.66,5.4A4.42,4.42,0,0,0,99,53.07a7.92,7.92,0,0,0,3.1-.58,16.11,16.11,0,0,0,6.77-5.4,29.24,29.24,0,0,0,3.45-6.55,16.44,16.44,0,0,0,1.37-5.62,14.25,14.25,0,0,0-.79-5.11,4.32,4.32,0,0,0-4.32-3.1A3.47,3.47,0,0,0,107.75,26.79Z"/><path class="cls-1" d="M170.9,41a9,9,0,0,1-1.51,3.46,7.1,7.1,0,0,0-.43.72c-.36.57-.8,1.22-1.16,1.8a6.75,6.75,0,0,0-.57.79l-.07.07a4.17,4.17,0,0,0-.44.58c-1.65,2.3-4.68,6.62-8.49,8.71a9.15,9.15,0,0,1-4.68,1.37c-1.88,0-4.54-.79-6.27-4.47l-.07-.07a19.73,19.73,0,0,1-4.9,3,13.82,13.82,0,0,1-4.82.87,8.28,8.28,0,0,1-6.12-2.23c-4.25-4.32-3.6-10.44-2.45-15.34a27.83,27.83,0,0,1,1.87-5.4l.15-.43a22.53,22.53,0,0,1,5-8.07,14.65,14.65,0,0,1,5.25-3.38,12,12,0,0,1,4.61-.94,10.47,10.47,0,0,1,5.91,1.87,9,9,0,0,1,1.8,1.8c.14.15.21.29.36.44a4.78,4.78,0,0,0,.36-1.23,1.31,1.31,0,0,1,.14-.29c1-3.09,2-5.83,3-8.56s1.94-5.41,2.95-8.43a.91.91,0,0,1,.93-.72h2.31c1.29,0,1.73.07,2,.36a.6.6,0,0,1,.08.5c-.15.65-.36,1.52-.51,2-.93,2.81-1.94,5.55-2.88,8.21-1.15,3.1-2.3,6.26-3.38,9.43-.72,2.31-1.44,4.61-2.09,6.91-.22.87-.5,1.81-.79,2.67-.36,1.3-.94,3-1.51,4.82-.87,2.45-1.66,5-2.24,7a6.1,6.1,0,0,0-.07,3c.5,1.66,1.44,1.66,1.73,1.66,1.08,0,2.66-1,4.54-2.81l.36-.36A26.45,26.45,0,0,0,161.61,47h.07c.08-.15.15-.22.22-.36l.36-.36.36-.58a7.84,7.84,0,0,1,.65-.79,9,9,0,0,0,.86-1.22c0-.08,0-.08.07-.08.15-.28.36-.5.51-.79s.14-.21.21-.36c.22-.29.44-.57.65-.86a4.46,4.46,0,0,1,.29-.58l.22-.29a11.47,11.47,0,0,1,1.58-1.94,2.13,2.13,0,0,1,2.45.29A2.07,2.07,0,0,1,170.9,41Zm-20.45-8.71c-.36-2.59-1.37-4-3.24-4.61a7.33,7.33,0,0,0-1.73-.22,8.5,8.5,0,0,0-4,1,17.58,17.58,0,0,0-2.59,2.23,17,17,0,0,0-3.67,6.49,26.39,26.39,0,0,0-1.87,9.43,15.4,15.4,0,0,0,.36,2.73,3.76,3.76,0,0,0,2.88,3.24,6.36,6.36,0,0,0,1.22.15,7.07,7.07,0,0,0,3.6-.94,12,12,0,0,0,4.46-4.17c.44-.72,1.37-2.16,1.73-3l.15-.36c.57-1.51,1.08-2.52,1.65-4.32C150.24,37.23,150.88,34.85,150.45,32.26Z"/><path class="cls-1" d="M195.45,41.12a10.23,10.23,0,0,1-1.51,3.24l-.07.14c-.08.07-.15.14-.15.22a2.58,2.58,0,0,1-.36.5,19.33,19.33,0,0,1-1.22,2,2,2,0,0,0-.36.5l-.07.07c-.22.22-.29.43-.44.58a38.91,38.91,0,0,1-5.9,6.69c-1.73,1.52-3.17,2.81-5.55,3.39a11.85,11.85,0,0,1-3.16.43,10.6,10.6,0,0,1-5.26-1.37,7.72,7.72,0,0,1-3-2.37,5.52,5.52,0,0,1-.79-1.37,1.31,1.31,0,0,1,.64-1.87c.51-.36,1-.65,1.52-.94a1.78,1.78,0,0,1,2.3.72,2.9,2.9,0,0,0,2.45,1.58,2.15,2.15,0,0,0,1.65-.72,9,9,0,0,0,2.09-4.82,49.61,49.61,0,0,0,.51-8.5c0-2.3-.15-3.89-.22-5.76-.07-1.29-.22-2.59-.22-4.32a4.12,4.12,0,0,0-.07-.93c-2,3.45-3.81,6.91-5.33,9.86-1,1.87-2.23,3.89-3.45,6-.29.43-.43.72-.65,1-.07.21-.22.36-.36.65a5.55,5.55,0,0,1-1.08,1.44,3.11,3.11,0,0,1-2.52,1.15,2.45,2.45,0,0,1-2.16-1.15,1.54,1.54,0,0,1,.07-1.66,8.84,8.84,0,0,1,.65-1.08c.43-.58.86-1.22,1.15-1.66.72-1.36,1.37-2.52,2-3.6,1.15-2,2.09-3.67,3.24-5.76l.65-1.37c1.44-2.66,2.88-5.4,4.53-8a9.73,9.73,0,0,1,.51-.93.77.77,0,0,0,.28-.36,2.19,2.19,0,0,1,1.66-.94.56.56,0,0,1,.29-.07,2.16,2.16,0,0,1,1,.21c.21,0,.43.08.64.08s.36.07.51.07h.57a2.25,2.25,0,0,1,1.73,1.08.07.07,0,0,1,.08.07,7.41,7.41,0,0,1,.79,2.81c.07,1.65.14,3.17.29,4.61.14,2.44.28,4.82.36,7.63v.36c.07,3.82.14,8.14-1.08,12.17.14-.07.21-.22.36-.29l.36-.36c.64-.72,1.36-1.51,2-2.38.22-.28.51-.57.72-.86a2.62,2.62,0,0,1,.36-.58l.22-.21a1.58,1.58,0,0,1,.5-.58c.43-.65,1-1.37,1.44-2,.29-.36.51-.8.79-1.16s.51-.79.72-1.08.15-.21.22-.36l.22-.28a15.16,15.16,0,0,1,1.44-1.88.07.07,0,0,0,.07-.07,2.22,2.22,0,0,1,2.45.22A2.28,2.28,0,0,1,195.45,41.12Z"/></svg>