<svg id="Layer_1" data-name="Layer 1" xmlns="http://www.w3.org/2000/svg" viewBox="0 0 348.62 70.72"><defs><style>.cls-1{fill:#e7e5d4;}</style></defs><title>shareables</title><path class="cls-1" d="M45.49,13.76a20.6,20.6,0,0,1-.64,3.2C42.93,24.32,37,29.68,29.17,31.52h-.08a1.48,1.48,0,0,1,.16.56,1.6,1.6,0,0,1,.24.64,65.06,65.06,0,0,1,3.84,9.44l.16.72A25.49,25.49,0,0,1,35,49.36,20.63,20.63,0,0,1,31.25,63a17.46,17.46,0,0,1-14.64,7.68,19.26,19.26,0,0,1-8.4-1.92A15,15,0,0,1,.05,54.16a13.69,13.69,0,0,1,1.68-5.52,9.7,9.7,0,0,1,8-5,6.49,6.49,0,0,1,3.28.88,2.91,2.91,0,0,1,1.28,1.12c1,1.44-1,3-1.84,3.6-.08.08-.32.24-1,.24a2,2,0,0,1-.64-.08c-.08,0-.08,0-.16-.08a2.27,2.27,0,0,0-1-.32,4,4,0,0,0-3,1.92,11.1,11.1,0,0,0-1,3.44,12.84,12.84,0,0,0,0,2.48c.48,3.52,3.76,7.44,9.84,8.08.56,0,1.12.08,1.6.08,8,0,11.84-6.8,12.16-13.44a23.67,23.67,0,0,0-.88-6.8c-1.2-3.92-3.28-7.68-4.88-11.44v-.08c-.08-.16-.24-.4-.4-.72a.8.8,0,0,1-.32-.4.48.48,0,0,0-.32-.08,27.44,27.44,0,0,1-7.92-1.36,18.49,18.49,0,0,1-5.84-3.28C3.57,23.36,1.57,14.8,4.29,8.72A10.11,10.11,0,0,1,6.37,5.6a3.61,3.61,0,0,1,2.8-1.12c.16,0,.32.08.56.08A6.88,6.88,0,0,1,11,4.64a.82.82,0,0,1,.8.48c.08.32-.16.64-.24.8s-.24.32-.32.48a6.16,6.16,0,0,0-.72,1l-.08.08A13.18,13.18,0,0,0,8.29,13a11.78,11.78,0,0,0,8.8,13,5.1,5.1,0,0,0,.56.16,13.23,13.23,0,0,0,2.56.56c-.4-1-1.28-3.12-1.6-4.24a21.4,21.4,0,0,1-.08-12.08,14.55,14.55,0,0,1,6.4-8.16A15.5,15.5,0,0,1,37.49.72C43.33,2.48,45.89,8.64,45.49,13.76Zm-5.68-3c-.4-3.84-4.32-5.6-7-5.6a1,1,0,0,0-.48.08A9.22,9.22,0,0,0,27,7.2a10.62,10.62,0,0,0-3.76,8.48,21.5,21.5,0,0,0,1,6.16c1.44,4.8,2.24,4.8,2.32,4.8a14.71,14.71,0,0,0,4.16-1C37.25,23.12,40.61,17.68,39.81,10.8Z"/><path class="cls-1" d="M84.45,45.52a9,9,0,0,1-1.76,3.76,5.13,5.13,0,0,0-.48.8c-.4.64-.88,1.36-1.28,2a6.67,6.67,0,0,0-.64,1,.8.8,0,0,0-.32.4c-.08.08-.24.24-.24.32a45.16,45.16,0,0,1-5.12,6c-1.92,1.92-4.24,4-7.12,4.8a9.75,9.75,0,0,1-2.56.32,6.16,6.16,0,0,1-6.48-6.4c-.08-3,1.28-6.48,2.32-9.2q.36-1.08.72-1.92c2.16-6.24,4.4-13,4.56-13.68a3,3,0,0,0-.32-2.56,3.66,3.66,0,0,0-3.12-1.2h-.32a6.62,6.62,0,0,0-3.28.8,17.24,17.24,0,0,0-4.88,4.08,51.37,51.37,0,0,0-7.28,12.8c-1.2,2.88-2.32,6.08-3.6,9.36a22.18,22.18,0,0,0-.8,2.08,4.59,4.59,0,0,1-.32,1.12l-.08.32a26,26,0,0,1-1.44,3.12,1.54,1.54,0,0,1-1.44.88,32.72,32.72,0,0,1-3.76-.24.87.87,0,0,1-.72-.32.42.42,0,0,1-.16-.32.66.66,0,0,1,0-.56,6.49,6.49,0,0,1,.24-.88c.64-1.6,2.16-5.28,4.32-10.88C41,46,43.25,39.92,44.61,36.4c1.76-4.72,3.12-8.48,3.6-9.84.32-1,2.08-5.76,3.6-9.84.8-1.92,1.36-3.52,1.84-4.56l.16-.32c.56-1.44,1.28-2.88,1.84-4.16a2.27,2.27,0,0,1,2.24-1.44H58a6.78,6.78,0,0,1,2.32.32h.24c.08.08.16.08.24.16s.24.08.32.08a.08.08,0,0,0,.08.08,1,1,0,0,1,.4,1.52c-1.36,3.68-4,10.32-5.68,15l-.48,1.36a16.68,16.68,0,0,0-.8,2.16c2.16-1.84,5.12-2.72,8.88-2.72a9.71,9.71,0,0,1,5,1.28c3.36,1.92,4.24,5.52,2.64,11.12-.72,2.32-2.16,6.64-3.28,10.08l-1.44,4a7.43,7.43,0,0,1-.32,1,21,21,0,0,0-1.12,3.76c-.24,1-.4,2.24.24,2.88.4.48,1.2.48,2.24.08a5.88,5.88,0,0,0,2.08-1.28,14.78,14.78,0,0,0,1.12-1.12l.72-.72a35.75,35.75,0,0,0,2.72-3.2,1.4,1.4,0,0,1,.32-.4,1.67,1.67,0,0,1,.32-.48l.48-.56c.4-.56.8-1.12,1.2-1.6.16-.24.4-.48.56-.72l.16-.32a6.67,6.67,0,0,1,.64-1c.4-.56.8-1.12,1.12-1.68L79,45.2A7.46,7.46,0,0,1,80.77,43a2.32,2.32,0,0,1,2.64.24A2.35,2.35,0,0,1,84.45,45.52Z"/><path class="cls-1" d="M127.25,45.6a9.43,9.43,0,0,1-1.77,3.76,5.83,5.83,0,0,1-.47.8A30,30,0,0,1,123.09,53a4.4,4.4,0,0,1-.56.72,47.65,47.65,0,0,1-5,6.08l-.47.48a14.41,14.41,0,0,1-3.61,3,9.72,9.72,0,0,1-3.43,1.2,7.23,7.23,0,0,1-8.16-5c0-.08-.08-.16-.08-.32l-.16.08a5.65,5.65,0,0,1-.65.64,21.88,21.88,0,0,1-8.79,4.64c-1,.16-2.89.32-2.89.32C83.4,64.8,79,60.72,78.29,54.64a27.11,27.11,0,0,1,.63-9,33.65,33.65,0,0,1,5.29-11c2.24-3.2,5.84-7.52,11.19-9.44a13.05,13.05,0,0,1,9.21-.08,7.74,7.74,0,0,1,5.2,5.2v.08c.08.16.08.4.16.64.16-.24.24-.4.4-.64a3.1,3.1,0,0,0,.48-.88h.08a1.74,1.74,0,0,1,1.44-.88,3.25,3.25,0,0,1,2.72.88,1.38,1.38,0,0,1,.48,1.84c-1,2.32-2,4.64-3,7a36.41,36.41,0,0,0-2.16,5.84c-.4,1.2-.8,2.4-1.21,3.52s-.87,2.4-1.19,3.6a13.81,13.81,0,0,0-.73,4.08v1c0,1.28.73,2.64,1.92,2.64a2.17,2.17,0,0,0,1-.24,8.12,8.12,0,0,0,2.08-1.28,33.78,33.78,0,0,0,4.72-5.2c.24-.24.39-.56.64-.8l.48-.64a22.52,22.52,0,0,0,1.68-2.32c.32-.4.56-.8.88-1.2v-.08a18.1,18.1,0,0,0,1-1.6l.24-.24a7.22,7.22,0,0,1,1.68-2.16,2.52,2.52,0,0,1,3.68,2.48ZM99,29.76a11.1,11.1,0,0,0-5.52,2.48c-5.35,4.24-9.35,12.16-9.83,19.2a8.48,8.48,0,0,0,1.83,6A5,5,0,0,0,89.32,59a8.67,8.67,0,0,0,3.44-.64,17.93,17.93,0,0,0,7.53-6A32.74,32.74,0,0,0,104.13,45a18.32,18.32,0,0,0,1.52-6.24,15.91,15.91,0,0,0-.88-5.68,4.8,4.8,0,0,0-4.8-3.44A4.31,4.31,0,0,0,99,29.76Z"/><path class="cls-1" d="M157.73,45.68A10.81,10.81,0,0,1,156,49.44a7.19,7.19,0,0,0-.49.72A25.69,25.69,0,0,1,153.57,53v.08a4,4,0,0,0-.57.72l-.32.4A45,45,0,0,1,148.21,60c-2.16,2.32-4.32,4.24-8.81,4.24h-.08a5.17,5.17,0,0,1-5.27-3.6c-1.21-3.6.16-7.52,1.35-11,.08-.32.25-.72.33-1,.63-1.76,1.11-3.44,1.84-5.52.72-2.4-.41-4.72-3.52-7.28a2.12,2.12,0,0,1-.48-.4l-.25-.24-.08.16c0,.08-.08.08-.08.16s-.08.16-.16.24l-.72,1.44c-.71,1.36-1.44,2.64-2.08,3.84-1.28,2.4-2.63,5-4.39,7.84l-.33.56A12.8,12.8,0,0,0,124.6,51a13.71,13.71,0,0,1-1.12,1.52,3.66,3.66,0,0,1-2.8,1.28h-.08a2.84,2.84,0,0,1-2.4-1.28,1.71,1.71,0,0,1,.08-1.84c.4-.64,1-1.52,1.45-2.24a6.05,6.05,0,0,0,.55-.88,101.23,101.23,0,0,0,6.88-12.08l.08-.16c.33-.8.81-1.68,1.2-2.8l.08-.24q0-.12-.24-.24a11.22,11.22,0,0,1-3.6-5.6,6.72,6.72,0,0,1,.48-5.36,6.09,6.09,0,0,1,4.08-2.72c2.57-.64,4.73.08,6,2.08a9.77,9.77,0,0,1,.57,8.72c-.08.24-.16.4-.08.56.16.72,1.43,1.76,2.32,2.4.24.16.39.32.55.4a12,12,0,0,1,4,5.76,13.57,13.57,0,0,1-.39,8.64c-.32,1-.73,2.08-1.13,3.12a25.12,25.12,0,0,0-1.84,5.76,3.56,3.56,0,0,0,.41,2.64c.4.48.95.4,1.75.08,2-1,4.08-3.68,5.52-5.6l.48-.64c.25-.32.41-.56.65-.88l.48-.56c.55-.8,1.28-1.6,1.68-2.32.24-.4.55-.8.87-1.28s.73-1.12,1-1.6l.16-.32a6.55,6.55,0,0,1,1.76-2.08,2.09,2.09,0,0,1,2.64.24A2.24,2.24,0,0,1,157.73,45.68ZM129.57,25A4.49,4.49,0,0,0,130.92,27a5.28,5.28,0,0,0,.4-2.8V24c0-.32-.08-.88-.64-.88a1.12,1.12,0,0,0-1,.48A1.42,1.42,0,0,0,129.57,25Z"/><path class="cls-1" d="M191.89,45.6a10.81,10.81,0,0,1-1.76,3.76,3,3,0,0,0-.48.8c-.57,1-1.28,1.92-1.92,2.88a4,4,0,0,0-.57.72L187,54a24.91,24.91,0,0,1-4.47,5.2,22.24,22.24,0,0,1-14.72,5.52h-.33a13.65,13.65,0,0,1-13.91-11c-.17-.64-.25-1.2-.41-1.76,0-.32-.08-.56-.08-.8-.88-6.56,1.6-14.32,6.24-20.24a16.48,16.48,0,0,1,6.16-5,14.42,14.42,0,0,1,5.12-1.44h1.29c7-.08,9.76,3.76,10.56,5.44a13,13,0,0,1-2.64,14.48,16,16,0,0,1-3.52,2.32,20.26,20.26,0,0,1-3.53,1.28l-.31.08a38.59,38.59,0,0,1-8.8,1.12h-.08a18.43,18.43,0,0,1-3-.08h-.79c-.24,0-.49-.08-.73-.08h-.4v.32a9.1,9.1,0,0,0,2.08,6.4,9.86,9.86,0,0,0,6.08,3.2,13.27,13.27,0,0,0,1.84.16A14.33,14.33,0,0,0,176,57.12a19.44,19.44,0,0,0,5.6-5,5.6,5.6,0,0,1,.64-.8l.48-.64c.55-.8,1.2-1.6,1.68-2.32a11.31,11.31,0,0,1,.87-1.2v-.08c.33-.56.73-1,1-1.6l.16-.24a7.13,7.13,0,0,1,1.76-2.16,2.2,2.2,0,0,1,2.64.24A2.22,2.22,0,0,1,191.89,45.6Zm-32-2.48c.08,0,.16.08.32.08,1.11.08,2.23.24,3.44.24h.24a40.79,40.79,0,0,0,6.24-.64,10.12,10.12,0,0,0,6.16-3,5.66,5.66,0,0,0,1.68-3,5.9,5.9,0,0,0,.08-2.08A6.61,6.61,0,0,0,176.53,31a5.28,5.28,0,0,0-3.21-1.52h-.08a5.57,5.57,0,0,0-1.19-.08A9.21,9.21,0,0,0,166,31.68a17.81,17.81,0,0,0-3.21,3.84,18.6,18.6,0,0,0-2.87,7.36Z"/><path class="cls-1" d="M234.37,45.6a9.57,9.57,0,0,1-1.77,3.76,5.83,5.83,0,0,1-.47.8A32,32,0,0,1,230.21,53a4.4,4.4,0,0,1-.56.72,47.65,47.65,0,0,1-5.05,6.08l-.47.48a14.59,14.59,0,0,1-3.61,3,9.77,9.77,0,0,1-3.44,1.2,7.24,7.24,0,0,1-8.16-5c0-.08-.08-.16-.08-.32l-.16.08a4.83,4.83,0,0,1-.64.64,21.91,21.91,0,0,1-8.8,4.64c-1,.16-2.88.32-2.88.32-5.84,0-10.24-4.08-11-10.16a26.86,26.86,0,0,1,.64-9,33.42,33.42,0,0,1,5.28-11c2.25-3.2,5.84-7.52,11.2-9.44a13.05,13.05,0,0,1,9.21-.08,7.71,7.71,0,0,1,5.19,5.2v.08c.08.16.08.4.16.64.16-.24.24-.4.4-.64a2.9,2.9,0,0,0,.49-.88h.08a1.72,1.72,0,0,1,1.43-.88,3.27,3.27,0,0,1,2.73.88,1.39,1.39,0,0,1,.47,1.84c-1,2.32-2,4.64-3,7a36.44,36.44,0,0,0-2.17,5.84c-.4,1.2-.8,2.4-1.2,3.52s-.88,2.4-1.2,3.6a13.84,13.84,0,0,0-.72,4.08v1c0,1.28.72,2.64,1.92,2.64a2.13,2.13,0,0,0,1-.24,8,8,0,0,0,2.08-1.28,33.82,33.82,0,0,0,4.73-5.2c.24-.24.39-.56.63-.8l.48-.64a19.88,19.88,0,0,0,1.68-2.32c.32-.4.56-.8.89-1.2v-.08a16,16,0,0,0,1-1.6l.24-.24a7.55,7.55,0,0,1,1.68-2.16,2.53,2.53,0,0,1,3.69,2.48ZM206.12,29.76a11.1,11.1,0,0,0-5.52,2.48c-5.36,4.24-9.36,12.16-9.84,19.2a8.44,8.44,0,0,0,1.84,6A5,5,0,0,0,196.44,59a8.7,8.7,0,0,0,3.44-.64,18,18,0,0,0,7.52-6A32.33,32.33,0,0,0,211.24,45a18.09,18.09,0,0,0,1.52-6.24,15.92,15.92,0,0,0-.87-5.68,4.82,4.82,0,0,0-4.81-3.44A4.23,4.23,0,0,0,206.12,29.76Z"/><path class="cls-1" d="M255.08,57.84a17.2,17.2,0,0,1-1.84-.16,25,25,0,0,1-1.76,2.64,14.08,14.08,0,0,1-4.48,4,13.9,13.9,0,0,1-6.56,1.76,14.19,14.19,0,0,1-4-.56,8.25,8.25,0,0,1-5.6-5.2c-1.52-3.52-1.76-7.12-1.84-11.44-.08-7.6,1.68-14.8,3-19.6a83.63,83.63,0,0,1,3.2-8.8l.48-1.2A56.16,56.16,0,0,1,239.08,12c2.32-4.08,5.6-5.52,7.84-5.52a4.69,4.69,0,0,1,4.56,2.88c1.68,3.52.32,7.28-1.12,11a10.68,10.68,0,0,0-.56,1.44l-.16.4a42.7,42.7,0,0,1-2.4,4.64l-1,1.76-.56,1c-1.36,2.56-8.48,12.48-11.28,15.92a54.32,54.32,0,0,0,.64,9c.32,2.08,1.2,5.52,4.48,5.92h.64a8.86,8.86,0,0,0,4.16-1,11.18,11.18,0,0,0,3.36-3.36,11.08,11.08,0,0,1-2.16-1.76l-.08-.08c-4-4.4-2.56-12.16-1.84-15.2a16.46,16.46,0,0,1,3.52-7.2,7.91,7.91,0,0,1,5.52-2.56,4.05,4.05,0,0,1,.89.08,12.29,12.29,0,0,1,1.75.48c3.44,1.36,4.48,5.84,3.12,13a55.25,55.25,0,0,1-2.79,9.36A5.66,5.66,0,0,0,260,50.8a21.77,21.77,0,0,0,4.64-6A5.11,5.11,0,0,1,266,43.12a2.53,2.53,0,0,1,3.69,2.48A9,9,0,0,1,268,49.36c-3.2,4.8-6.23,8.72-12.31,8.56A1.21,1.21,0,0,1,255.08,57.84ZM243.56,15.68a38.17,38.17,0,0,0-2.16,4.48l-.24.56a1.61,1.61,0,0,1-.32.64l-.24.64v.08c-.88,2.4-1.92,4.56-2.72,7.12L237,31.92c-.32,1-.64,1.92-.88,2.88l.08-.08.24-.4.64-1,.24-.24c1.36-2.16,3.36-5.44,4.32-7.12,2.88-5,3.68-6.48,4.64-10.32l.08-.32c.64-2.32.32-3,.24-3s-.08-.08-.16-.08c-.48,0-1.52.8-2.48,2.56l-.4.8Zm5.76,22.48a21.78,21.78,0,0,0-1.2,8c.08,2,.64,4.4,2.32,5.12a26.27,26.27,0,0,0,2.16-6.4c.48-2.16.88-4.08,1.12-6,.08-.8.08-1.6.08-2.24-.08-1-.56-1.92-1.28-1.92a1.85,1.85,0,0,0-1,.32A5.63,5.63,0,0,0,249.32,38.16Z"/><path class="cls-1" d="M287,45.6a9,9,0,0,1-1.76,3.76,3.51,3.51,0,0,0-.4.72.08.08,0,0,1-.08.08c-.56,1-1.36,2-1.92,2.88l-.56.8c-2.16,3-7.84,11-13.92,11A8.6,8.6,0,0,1,265,64c-3.12-1.68-3.92-5.6-3.36-8.8a36.53,36.53,0,0,1,1.44-5.2c2.8-8.16,5.92-16.24,9-24l1.28-3.28c1.2-3.12,2.48-6.24,3.68-9.44.4-1,.72-1.52,1.84-1.52h1.52c.56.08,1.12,0,1.68.08a1.39,1.39,0,0,1,1,.48,1.54,1.54,0,0,1,0,1v.08c-2.24,5.6-4.32,11.36-6.4,16.88-1.6,4.32-3.28,8.8-4.8,13.12-1.2,3.28-2.56,6.72-3.68,10.08-1,2.8-.72,4.08-.4,4.64a1.15,1.15,0,0,0,.8.48A4.1,4.1,0,0,0,272,57.36a27.56,27.56,0,0,0,4.72-5.2,8.77,8.77,0,0,1,.64-.8l.48-.64,1.68-2.32.4-.56.4-.64c.4-.56.8-1.12,1.12-1.68l.16-.24.32-.48a5.11,5.11,0,0,1,1.44-1.68,2.32,2.32,0,0,1,2.72.24A2.29,2.29,0,0,1,287,45.6Z"/><path class="cls-1" d="M321.4,45.6a10.81,10.81,0,0,1-1.76,3.76,3,3,0,0,0-.48.8c-.56,1-1.28,1.92-1.92,2.88a4.4,4.4,0,0,0-.56.72l-.16.24A25.25,25.25,0,0,1,312,59.2a22.22,22.22,0,0,1-14.72,5.52H297a13.67,13.67,0,0,1-13.92-11c-.16-.64-.24-1.2-.4-1.76,0-.32-.08-.56-.08-.8-.88-6.56,1.6-14.32,6.24-20.24a16.48,16.48,0,0,1,6.16-5,14.42,14.42,0,0,1,5.12-1.44h1.28c7-.08,9.76,3.76,10.56,5.44a13,13,0,0,1-2.64,14.48,15.8,15.8,0,0,1-3.52,2.32,20.14,20.14,0,0,1-3.52,1.28L302,48a38.45,38.45,0,0,1-8.8,1.12h-.08a18.3,18.3,0,0,1-3-.08h-.8c-.24,0-.48-.08-.72-.08h-.4v.32a9.1,9.1,0,0,0,2.08,6.4,9.81,9.81,0,0,0,6.08,3.2,13.13,13.13,0,0,0,1.84.16,14.29,14.29,0,0,0,7.28-1.92,19.31,19.31,0,0,0,5.6-5,5.6,5.6,0,0,1,.64-.8l.48-.64c.56-.8,1.2-1.6,1.68-2.32a11.45,11.45,0,0,1,.88-1.2v-.08c.32-.56.72-1,1-1.6l.16-.24a7.28,7.28,0,0,1,1.76-2.16,2.2,2.2,0,0,1,2.64.24A2.22,2.22,0,0,1,321.4,45.6Zm-32-2.48c.08,0,.16.08.32.08,1.12.08,2.24.24,3.44.24h.24a40.65,40.65,0,0,0,6.24-.64,10.07,10.07,0,0,0,6.16-3,5.6,5.6,0,0,0,1.68-3,5.9,5.9,0,0,0,.08-2.08A6.54,6.54,0,0,0,306,31a5.25,5.25,0,0,0-3.2-1.52h-.08a5.67,5.67,0,0,0-1.2-.08,9.21,9.21,0,0,0-6.08,2.32,17.75,17.75,0,0,0-3.2,3.84,18.63,18.63,0,0,0-2.88,7.36Z"/><path class="cls-1" d="M348.6,45.68a11.3,11.3,0,0,1-1.68,3.6l-.08.16c-.08.08-.16.16-.16.24a3.39,3.39,0,0,1-.4.56,20.85,20.85,0,0,1-1.36,2.24,2.43,2.43,0,0,0-.4.56l-.08.08c-.24.24-.32.48-.48.64a43.86,43.86,0,0,1-6.56,7.44c-1.92,1.68-3.52,3.12-6.16,3.76a13.33,13.33,0,0,1-3.52.48,11.79,11.79,0,0,1-5.84-1.52,8.53,8.53,0,0,1-3.28-2.64,6.13,6.13,0,0,1-.88-1.52,1.46,1.46,0,0,1,.72-2.08,19.14,19.14,0,0,1,1.68-1,2,2,0,0,1,2.56.8,3.23,3.23,0,0,0,2.72,1.76,2.43,2.43,0,0,0,1.84-.8A10.14,10.14,0,0,0,329.56,53a55.72,55.72,0,0,0,.56-9.44c0-2.56-.16-4.32-.24-6.4-.08-1.44-.24-2.88-.24-4.8a4.56,4.56,0,0,0-.08-1c-2.24,3.84-4.24,7.68-5.92,11-1.12,2.08-2.48,4.32-3.84,6.72-.32.48-.48.8-.72,1.12a7.21,7.21,0,0,1-.4.72,6,6,0,0,1-1.2,1.6,3.45,3.45,0,0,1-2.8,1.28,2.72,2.72,0,0,1-2.4-1.28,1.71,1.71,0,0,1,.08-1.84,9.52,9.52,0,0,1,.72-1.2c.48-.64,1-1.36,1.28-1.84.8-1.52,1.52-2.8,2.24-4,1.28-2.24,2.32-4.08,3.6-6.4l.72-1.52c1.6-3,3.2-6,5-8.88.16-.4.4-.72.56-1a.8.8,0,0,0,.32-.4,2.43,2.43,0,0,1,1.84-1,.6.6,0,0,1,.32-.08,2.32,2.32,0,0,1,1.12.24c.24,0,.48.08.72.08s.4.08.56.08H332a2.53,2.53,0,0,1,1.92,1.2.08.08,0,0,1,.08.08,8.26,8.26,0,0,1,.88,3.12c.08,1.84.16,3.52.32,5.12.16,2.72.32,5.36.4,8.48V43c.08,4.24.16,9-1.2,13.52.16-.08.24-.24.4-.32l.4-.4c.72-.8,1.52-1.68,2.24-2.64.24-.32.56-.64.8-1a2.81,2.81,0,0,1,.4-.64l.24-.24a1.84,1.84,0,0,1,.56-.64c.48-.72,1.12-1.52,1.6-2.24.32-.4.56-.88.88-1.28s.56-.88.8-1.2c.08-.16.16-.24.24-.4l.24-.32a17.32,17.32,0,0,1,1.6-2.08.08.08,0,0,0,.08-.08,2.46,2.46,0,0,1,2.72.24A2.52,2.52,0,0,1,348.6,45.68Z"/></svg>